<?xml version="1.0" encoding="utf-8"?>
<!-- Generator: Adobe Illustrator 12.0.0, SVG Export Plug-In . SVG Version: 6.00 Build 51448)  -->
<!DOCTYPE svg PUBLIC "-//W3C//DTD SVG 1.1//EN" "http://www.w3.org/Graphics/SVG/1.1/DTD/svg11.dtd" [
	<!ENTITY ns_svg "http://www.w3.org/2000/svg">
	<!ENTITY ns_xlink "http://www.w3.org/1999/xlink">
]>
<svg  version="1.1" id="Ñëîé_1" xmlns="&ns_svg;" xmlns:xlink="&ns_xlink;" width="595" height="842" viewBox="0 0 595 842"
	 overflow="visible" enable-background="new 0 0 595 842" xml:space="preserve">
<rect x="157.395" y="220.014" fill-rule="evenodd" clip-rule="evenodd" fill="#FFFFFF" stroke="#FFFFFF" stroke-width="0.5669" stroke-miterlimit="22.9256" width="298.5" height="298.5"/>
<g>
	<path fill-rule="evenodd" clip-rule="evenodd" fill="#808080" d="M191.163,225.962h233.214c6.023,0,10.952,4.928,10.952,10.952
		v119.828c0,6.024-4.929,10.953-10.952,10.953H191.163c-6.024,0-10.952-4.929-10.952-10.953V236.915
		C180.211,230.891,185.139,225.962,191.163,225.962z"/>
	<radialGradient id="XMLID_29_" cx="305.5195" cy="294.2969" r="118.0413" gradientUnits="userSpaceOnUse">
		<stop  offset="0" style="stop-color:#FFFFFF"/>
		<stop  offset="0.64" style="stop-color:#FFFFFF"/>
		<stop  offset="1" style="stop-color:#E8E7E5"/>
	</radialGradient>
	<path fill-rule="evenodd" clip-rule="evenodd" fill="url(#XMLID_29_)" d="M188.913,223.431h233.214
		c6.023,0,10.952,4.928,10.952,10.952v119.828c0,6.024-4.929,10.952-10.952,10.952H188.913c-6.024,0-10.952-4.928-10.952-10.952
		V234.383C177.961,228.359,182.889,223.431,188.913,223.431z"/>
	<path fill-rule="evenodd" clip-rule="evenodd" fill="#B3B3B3" d="M430.882,227.823c1.378,1.832,2.197,4.104,2.197,6.56v13.183
		c-1.146,0.753-2.381,1.771-4.159,4.052c-9.175,11.77,2.552,27.214-7.308,28.192c-11.837,1.174-4.216-12.544-4.436-18.622
		c-0.254-7.032,1.66-13.057-5.129-13.969c-12.942-1.74-0.287,22.042-10.498,22.278c-8.12,0.187-3.206-17.019-7.971-17.25
		c-11.166-0.542-0.188,20.721-8.998,24.938c-2.203,1.054-6.145,1.612-9.006-0.571c-7.547-5.759,5.052-18.914-10.523-18.278
		c-12.227,0.499,0.336,16.449-14.159,16.787c-11.875,0.276-6.561-11.637-17.748-12.844c-18.493-1.996-4.065,20.895-14.11,20.454
		c-9.664-0.424,5.064-19.629-11.451-20.489c-20.615-1.074-1.266,31.667-12.967,34.005c-22.143,4.422,3.712-37.099-12.29-37.063
		c-11.491,0.025-4.554,12.934-10.275,13.063c-7.489,0.169-4.671-17.387-5.004-20.973c-0.846-9.104-8.936-5.763-8.936,2.722
		c0,8.573,9.872,33.032-6.653,32.657c-20.892-0.474-0.633-33.859-11.673-34.313c-9.872-0.405-11.555,13.871-9.798,21.659
		c5.156,22.855-18.927,16.031-12.408,0.504c2.209-5.261,1.054-14.452-3.278-14.507c-16.82-0.214,2.696,28.163-14.095,26.936
		c-9.837-0.719,6.139-32.183-4.579-30.842c-3.882,0.486-2.602,12.814-2.326,14.47c1.438,8.655-8.273,6.102-6.75-0.096
		c0.835-3.399,2.428-22.314-4.564-29.186c-1.212-1.192-2.316-2.026-3.323-2.587v-3.464c0-6.024,4.928-10.952,10.952-10.952H422.83
		C426.006,224.275,428.877,225.645,430.882,227.823z"/>
	<path fill-rule="evenodd" clip-rule="evenodd" fill="#FF0000" d="M188.913,223.431h233.214c6.023,0,10.952,4.928,10.952,10.952
		v11.896c-1.361,0.829-2.717,1.742-4.862,4.494c-9.175,11.77,2.552,27.215-7.308,28.192c-11.837,1.174-4.216-12.543-4.436-18.622
		c-0.254-7.031,1.66-13.056-5.13-13.969c-12.942-1.74-0.286,22.042-10.497,22.277c-8.12,0.188-3.206-17.019-7.971-17.25
		c-11.166-0.542-0.188,20.721-8.998,24.938c-2.203,1.054-6.145,1.612-9.006-0.571c-7.547-5.759,5.052-18.913-10.523-18.278
		c-12.227,0.499,0.336,16.449-14.159,16.787c-11.875,0.276-6.561-11.637-17.748-12.844c-18.493-1.995-4.065,20.895-14.11,20.454
		c-9.664-0.425,5.064-19.629-11.451-20.489c-20.616-1.074-1.266,31.667-12.967,34.005c-22.142,4.422,3.712-37.099-12.289-37.063
		c-11.491,0.025-4.554,12.934-10.275,13.063c-7.489,0.169-4.671-17.388-5.004-20.973c-0.846-9.104-8.936-5.763-8.936,2.722
		c0,8.573,9.872,33.032-6.654,32.657c-20.892-0.474-0.633-33.859-11.673-34.313c-9.871-0.405-11.555,13.871-9.798,21.659
		c5.156,22.855-18.926,16.031-12.407,0.504c2.209-5.261,1.054-14.453-3.278-14.507c-16.82-0.213,2.696,28.164-14.095,26.936
		c-9.837-0.72,6.139-32.184-4.579-30.842c-3.883,0.486-2.602,12.814-2.327,14.47c1.439,8.655-8.272,6.102-6.75-0.096
		c0.835-3.399,2.428-22.314-4.564-29.186c-1.213-1.192-2.316-2.026-3.323-2.587v-3.464
		C177.961,228.359,182.889,223.431,188.913,223.431z"/>
	<text transform="matrix(1 0 0 1 195.5259 343.6377)"><tspan x="0" y="0" fill="#FF0000" font-family="'Arial-BoldMT'" font-size="15.0327">F</tspan><tspan x="9.183" y="0" fill="#FF0000" font-family="'Arial-BoldMT'" font-size="15.0327">irst and Last Name</tspan></text>
	<linearGradient id="XMLID_30_" gradientUnits="userSpaceOnUse" x1="250.0771" y1="285.165" x2="250.0771" y2="254.7889">
		<stop  offset="0" style="stop-color:#EB6C67"/>
		<stop  offset="1" style="stop-color:#E53817"/>
	</linearGradient>
	<path fill-rule="evenodd" clip-rule="evenodd" fill="url(#XMLID_30_)" d="M249.938,254.283c-7.548,0.159-9.461,18.97-7.726,24.334
		c2.552,7.887,12.339,7.527,15.179,1.61C260.563,273.622,256.846,254.137,249.938,254.283z"/>
	<linearGradient id="XMLID_31_" gradientUnits="userSpaceOnUse" x1="222.562" y1="287.1396" x2="222.562" y2="266.8059">
		<stop  offset="0" style="stop-color:#EB6C67"/>
		<stop  offset="1" style="stop-color:#E53817"/>
	</linearGradient>
	<path fill-rule="evenodd" clip-rule="evenodd" fill="url(#XMLID_31_)" d="M222.469,266.467c-5.053,0.106-6.333,12.698-5.172,16.29
		c1.708,5.28,8.26,5.039,10.161,1.078C229.581,279.413,227.093,266.37,222.469,266.467z"/>
	<linearGradient id="XMLID_32_" gradientUnits="userSpaceOnUse" x1="200.8364" y1="286.0269" x2="200.8364" y2="270.1048">
		<stop  offset="0" style="stop-color:#EB6C67"/>
		<stop  offset="1" style="stop-color:#E53817"/>
	</linearGradient>
	<path fill-rule="evenodd" clip-rule="evenodd" fill="url(#XMLID_32_)" d="M200.764,269.841c-3.957,0.083-4.959,9.942-4.049,12.754
		c1.337,4.134,6.466,3.945,7.955,0.844C206.332,279.977,204.384,269.765,200.764,269.841z"/>
	<linearGradient id="XMLID_33_" gradientUnits="userSpaceOnUse" x1="188.9878" y1="274.6226" x2="188.9878" y2="264.8076">
		<stop  offset="0" style="stop-color:#EB6C67"/>
		<stop  offset="1" style="stop-color:#E53817"/>
	</linearGradient>
	<path fill-rule="evenodd" clip-rule="evenodd" fill="url(#XMLID_33_)" d="M188.943,264.645c-2.438,0.052-3.057,6.129-2.496,7.862
		c0.824,2.548,3.986,2.432,4.904,0.52C192.376,270.893,191.175,264.598,188.943,264.645z"/>
	<linearGradient id="XMLID_34_" gradientUnits="userSpaceOnUse" x1="290.6245" y1="293.9683" x2="290.6245" y2="274.2571">
		<stop  offset="0" style="stop-color:#EB6C67"/>
		<stop  offset="1" style="stop-color:#E53817"/>
	</linearGradient>
	<path fill-rule="evenodd" clip-rule="evenodd" fill="url(#XMLID_34_)" d="M290.534,273.929c-4.898,0.104-6.14,12.31-5.014,15.791
		c1.656,5.118,8.007,4.884,9.85,1.044C297.429,286.478,295.017,273.834,290.534,273.929z"/>
	<linearGradient id="XMLID_35_" gradientUnits="userSpaceOnUse" x1="270.1909" y1="270.5776" x2="270.1909" y2="261.3847">
		<stop  offset="0" style="stop-color:#EB6C67"/>
		<stop  offset="1" style="stop-color:#E53817"/>
	</linearGradient>
	<path fill-rule="evenodd" clip-rule="evenodd" fill="url(#XMLID_35_)" d="M270.149,261.232c-2.284,0.048-2.863,5.741-2.338,7.364
		c0.772,2.387,3.734,2.278,4.594,0.487C273.365,267.084,272.24,261.188,270.149,261.232z"/>
	<linearGradient id="XMLID_36_" gradientUnits="userSpaceOnUse" x1="318.0527" y1="281.5161" x2="318.0527" y2="271.4747">
		<stop  offset="0" style="stop-color:#EB6C67"/>
		<stop  offset="1" style="stop-color:#E53817"/>
	</linearGradient>
	<path fill-rule="evenodd" clip-rule="evenodd" fill="url(#XMLID_36_)" d="M318.007,271.307c-2.495,0.053-3.128,6.271-2.554,8.044
		c0.843,2.607,4.078,2.488,5.018,0.532C321.52,277.699,320.29,271.258,318.007,271.307z"/>
	<linearGradient id="XMLID_37_" gradientUnits="userSpaceOnUse" x1="349.585" y1="273.9478" x2="349.585" y2="263.9063">
		<stop  offset="0" style="stop-color:#EB6C67"/>
		<stop  offset="1" style="stop-color:#E53817"/>
	</linearGradient>
	<path fill-rule="evenodd" clip-rule="evenodd" fill="url(#XMLID_37_)" d="M349.479,263.506c-5.807,0.053-7.278,6.271-5.943,8.044
		c1.963,2.607,9.491,2.488,11.676,0.532C357.65,269.898,354.792,263.458,349.479,263.506z"/>
	<linearGradient id="XMLID_38_" gradientUnits="userSpaceOnUse" x1="379.4912" y1="276.5786" x2="379.4912" y2="258.9768">
		<stop  offset="0" style="stop-color:#EB6C67"/>
		<stop  offset="1" style="stop-color:#E53817"/>
	</linearGradient>
	<path fill-rule="evenodd" clip-rule="evenodd" fill="url(#XMLID_38_)" d="M379.385,258.582c-5.807,0.092-7.278,10.993-5.943,14.101
		c1.963,4.57,9.491,4.362,11.676,0.933C387.558,269.788,384.698,258.498,379.385,258.582z"/>
	<linearGradient id="XMLID_39_" gradientUnits="userSpaceOnUse" x1="400.249" y1="268.126" x2="400.249" y2="254.9307">
		<stop  offset="0" style="stop-color:#EB6C67"/>
		<stop  offset="1" style="stop-color:#E53817"/>
	</linearGradient>
	<path fill-rule="evenodd" clip-rule="evenodd" fill="url(#XMLID_39_)" d="M400.189,254.714c-3.256,0.069-4.08,8.239-3.332,10.57
		c1.101,3.426,5.321,3.27,6.546,0.699C404.771,263.113,403.168,254.65,400.189,254.714z"/>
	<linearGradient id="XMLID_40_" gradientUnits="userSpaceOnUse" x1="419.2197" y1="278.4893" x2="419.2197" y2="263.8198">
		<stop  offset="0" style="stop-color:#EB6C67"/>
		<stop  offset="1" style="stop-color:#E53817"/>
	</linearGradient>
	<path fill-rule="evenodd" clip-rule="evenodd" fill="url(#XMLID_40_)" d="M419.153,263.577c-3.619,0.077-4.536,9.161-3.704,11.752
		c1.223,3.809,5.915,3.635,7.277,0.777C424.247,272.917,422.465,263.507,419.153,263.577z"/>
	<path fill-rule="evenodd" clip-rule="evenodd" fill="#FFFFFF" d="M243.546,266.223c-2.632,3.505-1.128,17.771,3.25,15.98
		C251.267,280.374,243.745,274.881,243.546,266.223z"/>
	<path fill-rule="evenodd" clip-rule="evenodd" fill="#FFFFFF" d="M217.868,274.918c-1.633,2.175-0.7,11.026,2.017,9.916
		C222.659,283.699,217.992,280.291,217.868,274.918z"/>
	<path fill-rule="evenodd" clip-rule="evenodd" fill="#FFFFFF" d="M197.242,276.386c-1.284,1.709-0.55,8.668,1.585,7.794
		C201.008,283.288,197.339,280.609,197.242,276.386z"/>
	<path fill-rule="evenodd" clip-rule="evenodd" fill="#FFFFFF" d="M186.798,268.944c-0.785,1.045-0.336,5.299,0.97,4.766
		C189.101,273.164,186.857,271.526,186.798,268.944z"/>
	<path fill-rule="evenodd" clip-rule="evenodd" fill="#FFFFFF" d="M268.466,264.793c-0.701,0.933-0.301,4.732,0.865,4.255
		C270.522,268.561,268.519,267.099,268.466,264.793z"/>
	<path fill-rule="evenodd" clip-rule="evenodd" fill="#FFFFFF" d="M286.771,280.225c-2.076,2.765-0.89,14.017,2.563,12.604
		C292.861,291.387,286.928,287.055,286.771,280.225z"/>
	<path fill-rule="evenodd" clip-rule="evenodd" fill="#FFFFFF" d="M315.913,274.487c-1.068,1.422-0.458,7.212,1.318,6.485
		C319.046,280.23,315.993,278,315.913,274.487z"/>
	<path fill-rule="evenodd" clip-rule="evenodd" fill="#FFFFFF" d="M342.109,266.086c-0.604,1.673,1.677,7.029,3.163,5.813
		C346.789,270.659,343.217,269.422,342.109,266.086z"/>
	<path fill-rule="evenodd" clip-rule="evenodd" fill="#FFFFFF" d="M374.353,264.94c-1.529,2.037-0.656,10.326,1.889,9.285
		C378.839,273.163,374.468,269.971,374.353,264.94z"/>
	<path fill-rule="evenodd" clip-rule="evenodd" fill="#FFFFFF" d="M397.398,259.972c-1.116,1.487-0.479,7.538,1.379,6.778
		C400.673,265.974,397.482,263.645,397.398,259.972z"/>
	<path fill-rule="evenodd" clip-rule="evenodd" fill="#FFFFFF" d="M415.813,270.293c-1.148,1.529-0.493,7.754,1.418,6.973
		C419.182,276.468,415.898,274.072,415.813,270.293z"/>
	<path fill-rule="evenodd" clip-rule="evenodd" fill="#808080" d="M191.163,373.364h233.214c6.023,0,10.952,4.928,10.952,10.952
		v119.828c0,6.024-4.929,10.953-10.952,10.953H191.163c-6.024,0-10.952-4.929-10.952-10.953V384.316
		C180.211,378.292,185.139,373.364,191.163,373.364z"/>
	<radialGradient id="XMLID_41_" cx="305.5195" cy="441.6982" r="118.0413" gradientUnits="userSpaceOnUse">
		<stop  offset="0" style="stop-color:#FFFFFF"/>
		<stop  offset="0.64" style="stop-color:#FFFFFF"/>
		<stop  offset="1" style="stop-color:#E8E7E5"/>
	</radialGradient>
	<path fill-rule="evenodd" clip-rule="evenodd" fill="url(#XMLID_41_)" d="M188.913,370.833h233.214
		c6.023,0,10.952,4.928,10.952,10.952v119.828c0,6.024-4.929,10.952-10.952,10.952H188.913c-6.024,0-10.952-4.928-10.952-10.952
		V381.785C177.961,375.761,182.889,370.833,188.913,370.833z"/>
	<path fill-rule="evenodd" clip-rule="evenodd" fill="#B3B3B3" d="M430.882,375.225c1.378,1.832,2.197,4.105,2.197,6.56v13.183
		c-1.146,0.753-2.381,1.771-4.159,4.052c-9.175,11.77,2.552,27.215-7.308,28.192c-11.837,1.174-4.216-12.543-4.436-18.622
		c-0.254-7.031,1.66-13.056-5.129-13.969c-12.942-1.74-0.287,22.042-10.498,22.278c-8.12,0.188-3.206-17.019-7.971-17.25
		c-11.166-0.542-0.188,20.721-8.998,24.938c-2.203,1.054-6.145,1.612-9.006-0.571c-7.547-5.759,5.052-18.913-10.523-18.278
		c-12.227,0.499,0.336,16.449-14.159,16.787c-11.875,0.276-6.561-11.637-17.748-12.844c-18.493-1.995-4.065,20.895-14.11,20.454
		c-9.664-0.424,5.064-19.629-11.451-20.488c-20.615-1.074-1.266,31.667-12.967,34.005c-22.143,4.422,3.712-37.099-12.29-37.064
		c-11.491,0.025-4.554,12.934-10.275,13.063c-7.489,0.169-4.671-17.388-5.004-20.973c-0.846-9.104-8.936-5.763-8.936,2.722
		c0,8.573,9.872,33.032-6.653,32.657c-20.892-0.475-0.633-33.859-11.673-34.313c-9.872-0.405-11.555,13.871-9.798,21.659
		c5.156,22.855-18.927,16.031-12.408,0.503c2.209-5.261,1.054-14.452-3.278-14.507c-16.82-0.213,2.696,28.163-14.095,26.936
		c-9.837-0.719,6.139-32.183-4.579-30.841c-3.882,0.486-2.602,12.814-2.326,14.47c1.438,8.655-8.273,6.101-6.75-0.097
		c0.835-3.399,2.428-22.313-4.564-29.186c-1.212-1.191-2.316-2.026-3.323-2.587v-3.464c0-6.024,4.928-10.953,10.952-10.953H422.83
		C426.006,371.676,428.877,373.046,430.882,375.225z"/>
	<path fill-rule="evenodd" clip-rule="evenodd" fill="#990000" d="M188.913,370.833h233.214c6.023,0,10.952,4.928,10.952,10.952
		v11.896c-1.361,0.829-2.717,1.742-4.862,4.495c-9.175,11.77,2.552,27.215-7.308,28.192c-11.837,1.174-4.216-12.543-4.436-18.622
		c-0.254-7.031,1.66-13.057-5.13-13.969c-12.942-1.74-0.286,22.042-10.497,22.278c-8.12,0.188-3.206-17.019-7.971-17.25
		c-11.166-0.542-0.188,20.721-8.998,24.937c-2.203,1.055-6.145,1.613-9.006-0.57c-7.547-5.759,5.052-18.914-10.523-18.278
		c-12.227,0.499,0.336,16.449-14.159,16.787c-11.875,0.275-6.561-11.637-17.748-12.844c-18.493-1.995-4.065,20.895-14.11,20.454
		c-9.664-0.425,5.064-19.629-11.451-20.488c-20.616-1.075-1.266,31.667-12.967,34.005c-22.142,4.422,3.712-37.099-12.289-37.064
		c-11.491,0.025-4.554,12.934-10.275,13.063c-7.489,0.169-4.671-17.387-5.004-20.973c-0.846-9.104-8.936-5.763-8.936,2.721
		c0,8.573,9.872,33.033-6.654,32.658c-20.892-0.475-0.633-33.86-11.673-34.313c-9.871-0.406-11.555,13.871-9.798,21.659
		c5.156,22.855-18.926,16.031-12.407,0.503c2.209-5.261,1.054-14.452-3.278-14.507c-16.82-0.214,2.696,28.163-14.095,26.936
		c-9.837-0.719,6.139-32.183-4.579-30.842c-3.883,0.486-2.602,12.814-2.327,14.47c1.439,8.655-8.272,6.102-6.75-0.096
		c0.835-3.399,2.428-22.314-4.564-29.186c-1.213-1.191-2.316-2.026-3.323-2.587v-3.464
		C177.961,375.761,182.889,370.833,188.913,370.833z"/>
	<text transform="matrix(1 0 0 1 195.5259 491.0391)"><tspan x="0" y="0" fill="#990000" font-family="'Arial-BoldMT'" font-size="15.0327">F</tspan><tspan x="9.183" y="0" fill="#990000" font-family="'Arial-BoldMT'" font-size="15.0327">irst and Last Name</tspan></text>
	<linearGradient id="XMLID_42_" gradientUnits="userSpaceOnUse" x1="250.0771" y1="432.5664" x2="250.0771" y2="402.1902">
		<stop  offset="0" style="stop-color:#CF8480"/>
		<stop  offset="1" style="stop-color:#A41C17"/>
	</linearGradient>
	<path fill-rule="evenodd" clip-rule="evenodd" fill="url(#XMLID_42_)" d="M249.938,401.685c-7.548,0.159-9.461,18.97-7.726,24.335
		c2.552,7.887,12.339,7.526,15.179,1.609C260.563,421.023,256.846,401.539,249.938,401.685z"/>
	<linearGradient id="XMLID_43_" gradientUnits="userSpaceOnUse" x1="222.562" y1="434.541" x2="222.562" y2="414.2073">
		<stop  offset="0" style="stop-color:#CF8480"/>
		<stop  offset="1" style="stop-color:#A41C17"/>
	</linearGradient>
	<path fill-rule="evenodd" clip-rule="evenodd" fill="url(#XMLID_43_)" d="M222.469,413.869c-5.053,0.106-6.333,12.699-5.172,16.29
		c1.708,5.28,8.26,5.039,10.161,1.078C229.581,426.814,227.093,413.771,222.469,413.869z"/>
	<linearGradient id="XMLID_44_" gradientUnits="userSpaceOnUse" x1="200.8364" y1="433.4287" x2="200.8364" y2="417.5088">
		<stop  offset="0" style="stop-color:#CF8480"/>
		<stop  offset="1" style="stop-color:#A41C17"/>
	</linearGradient>
	<path fill-rule="evenodd" clip-rule="evenodd" fill="url(#XMLID_44_)" d="M200.764,417.243c-3.957,0.083-4.959,9.941-4.049,12.754
		c1.337,4.134,6.466,3.944,7.955,0.844C206.332,427.379,204.384,417.167,200.764,417.243z"/>
	<linearGradient id="XMLID_45_" gradientUnits="userSpaceOnUse" x1="188.9878" y1="422.0234" x2="188.9878" y2="412.2099">
		<stop  offset="0" style="stop-color:#CF8480"/>
		<stop  offset="1" style="stop-color:#A41C17"/>
	</linearGradient>
	<path fill-rule="evenodd" clip-rule="evenodd" fill="url(#XMLID_45_)" d="M188.943,412.046c-2.438,0.052-3.057,6.129-2.496,7.862
		c0.824,2.548,3.986,2.432,4.904,0.521C192.376,418.294,191.175,411.999,188.943,412.046z"/>
	<linearGradient id="XMLID_46_" gradientUnits="userSpaceOnUse" x1="290.6245" y1="441.3701" x2="290.6245" y2="421.6589">
		<stop  offset="0" style="stop-color:#CF8480"/>
		<stop  offset="1" style="stop-color:#A41C17"/>
	</linearGradient>
	<path fill-rule="evenodd" clip-rule="evenodd" fill="url(#XMLID_46_)" d="M290.534,421.33c-4.898,0.104-6.14,12.31-5.014,15.791
		c1.656,5.118,8.007,4.885,9.85,1.045C297.429,433.879,295.017,421.235,290.534,421.33z"/>
	<linearGradient id="XMLID_47_" gradientUnits="userSpaceOnUse" x1="270.1909" y1="417.979" x2="270.1909" y2="408.7861">
		<stop  offset="0" style="stop-color:#CF8480"/>
		<stop  offset="1" style="stop-color:#A41C17"/>
	</linearGradient>
	<path fill-rule="evenodd" clip-rule="evenodd" fill="url(#XMLID_47_)" d="M270.149,408.633c-2.284,0.048-2.863,5.741-2.338,7.364
		c0.772,2.387,3.734,2.278,4.594,0.487C273.365,414.486,272.24,408.589,270.149,408.633z"/>
	<linearGradient id="XMLID_48_" gradientUnits="userSpaceOnUse" x1="318.0527" y1="428.917" x2="318.0527" y2="418.8765">
		<stop  offset="0" style="stop-color:#CF8480"/>
		<stop  offset="1" style="stop-color:#A41C17"/>
	</linearGradient>
	<path fill-rule="evenodd" clip-rule="evenodd" fill="url(#XMLID_48_)" d="M318.007,418.708c-2.495,0.053-3.128,6.271-2.554,8.044
		c0.843,2.607,4.078,2.488,5.018,0.532C321.52,425.101,320.29,418.66,318.007,418.708z"/>
	<linearGradient id="XMLID_49_" gradientUnits="userSpaceOnUse" x1="349.585" y1="421.3491" x2="349.585" y2="411.3077">
		<stop  offset="0" style="stop-color:#CF8480"/>
		<stop  offset="1" style="stop-color:#A41C17"/>
	</linearGradient>
	<path fill-rule="evenodd" clip-rule="evenodd" fill="url(#XMLID_49_)" d="M349.479,410.907c-5.807,0.053-7.278,6.271-5.943,8.044
		c1.963,2.607,9.491,2.488,11.676,0.532C357.65,417.3,354.792,410.859,349.479,410.907z"/>
	<linearGradient id="XMLID_50_" gradientUnits="userSpaceOnUse" x1="379.4912" y1="423.9814" x2="379.4912" y2="406.3791">
		<stop  offset="0" style="stop-color:#CF8480"/>
		<stop  offset="1" style="stop-color:#A41C17"/>
	</linearGradient>
	<path fill-rule="evenodd" clip-rule="evenodd" fill="url(#XMLID_50_)" d="M379.385,405.983c-5.807,0.092-7.278,10.993-5.943,14.102
		c1.963,4.57,9.491,4.361,11.676,0.933C387.558,417.189,384.698,405.899,379.385,405.983z"/>
	<linearGradient id="XMLID_51_" gradientUnits="userSpaceOnUse" x1="400.249" y1="415.5278" x2="400.249" y2="402.3334">
		<stop  offset="0" style="stop-color:#CF8480"/>
		<stop  offset="1" style="stop-color:#A41C17"/>
	</linearGradient>
	<path fill-rule="evenodd" clip-rule="evenodd" fill="url(#XMLID_51_)" d="M400.189,402.115c-3.256,0.069-4.08,8.24-3.332,10.57
		c1.101,3.426,5.321,3.269,6.546,0.699C404.771,410.515,403.168,402.052,400.189,402.115z"/>
	<linearGradient id="XMLID_52_" gradientUnits="userSpaceOnUse" x1="419.2197" y1="425.8906" x2="419.2197" y2="411.2222">
		<stop  offset="0" style="stop-color:#CF8480"/>
		<stop  offset="1" style="stop-color:#A41C17"/>
	</linearGradient>
	<path fill-rule="evenodd" clip-rule="evenodd" fill="url(#XMLID_52_)" d="M419.153,410.979c-3.619,0.077-4.536,9.161-3.704,11.751
		c1.223,3.809,5.915,3.635,7.277,0.777C424.247,420.318,422.465,410.909,419.153,410.979z"/>
	<path fill-rule="evenodd" clip-rule="evenodd" fill="#FFFFFF" d="M243.546,413.625c-2.632,3.505-1.128,17.771,3.25,15.98
		C251.267,427.775,243.745,422.283,243.546,413.625z"/>
	<path fill-rule="evenodd" clip-rule="evenodd" fill="#FFFFFF" d="M217.868,422.32c-1.633,2.175-0.7,11.026,2.017,9.915
		C222.659,431.101,217.992,427.692,217.868,422.32z"/>
	<path fill-rule="evenodd" clip-rule="evenodd" fill="#FFFFFF" d="M197.242,423.787c-1.284,1.71-0.55,8.668,1.585,7.795
		C201.008,430.689,197.339,428.011,197.242,423.787z"/>
	<path fill-rule="evenodd" clip-rule="evenodd" fill="#FFFFFF" d="M186.798,416.346c-0.785,1.045-0.336,5.3,0.97,4.766
		C189.101,420.566,186.857,418.928,186.798,416.346z"/>
	<path fill-rule="evenodd" clip-rule="evenodd" fill="#FFFFFF" d="M268.466,412.194c-0.701,0.934-0.301,4.732,0.865,4.255
		C270.522,415.963,268.519,414.5,268.466,412.194z"/>
	<path fill-rule="evenodd" clip-rule="evenodd" fill="#FFFFFF" d="M286.771,427.627c-2.076,2.765-0.89,14.017,2.563,12.604
		C292.861,438.789,286.928,434.456,286.771,427.627z"/>
	<path fill-rule="evenodd" clip-rule="evenodd" fill="#FFFFFF" d="M315.913,421.889c-1.068,1.422-0.458,7.212,1.318,6.485
		C319.046,427.632,315.993,425.402,315.913,421.889z"/>
	<path fill-rule="evenodd" clip-rule="evenodd" fill="#FFFFFF" d="M342.109,413.488c-0.604,1.673,1.677,7.03,3.163,5.813
		C346.789,418.06,343.217,416.824,342.109,413.488z"/>
	<path fill-rule="evenodd" clip-rule="evenodd" fill="#FFFFFF" d="M374.353,412.342c-1.529,2.037-0.656,10.326,1.889,9.285
		C378.839,420.564,374.468,417.373,374.353,412.342z"/>
	<path fill-rule="evenodd" clip-rule="evenodd" fill="#FFFFFF" d="M397.398,407.374c-1.116,1.487-0.479,7.538,1.379,6.778
		C400.673,413.376,397.482,411.046,397.398,407.374z"/>
	<path fill-rule="evenodd" clip-rule="evenodd" fill="#FFFFFF" d="M415.813,417.695c-1.148,1.529-0.493,7.754,1.418,6.973
		C419.182,423.87,415.898,421.473,415.813,417.695z"/>
	<path fill-rule="evenodd" clip-rule="evenodd" fill="#B3B3B3" d="M369.574,305.519c3.984-7.936,9.804-9.38,17.395-9.38
		c6.385,0,8.692-0.279,14.373,1.591c5.04,1.658,6.9,6.568,6.392,11.534c-0.533,5.197-7.159,4.435-1.222,18.75
		c2.23,5.378,0.292,15.707-8.405,16.516c-11.675,1.085-0.675-25.025-11.513-24.863c-8.746,0.131-9.235,19.737-4.36,31.125
		c2.966,6.93-10.863,9.361-13.299,5.027c-3.022-5.375-1.243-20.137-0.405-25.025C370.302,320.463,363.509,317.597,369.574,305.519z"
		/>
	<path fill-rule="evenodd" clip-rule="evenodd" fill="#FF0000" d="M368.637,304.956c3.984-7.936,9.804-9.38,17.395-9.38
		c6.385,0,8.692-0.279,14.373,1.591c5.04,1.658,6.9,6.567,6.392,11.534c-0.533,5.197-7.159,4.435-1.222,18.75
		c2.23,5.378,0.292,15.707-8.405,16.516c-11.675,1.086-0.675-25.024-11.513-24.862c-8.746,0.131-9.235,19.737-4.36,31.125
		c2.967,6.93-10.863,9.361-13.299,5.028c-3.022-5.375-1.243-20.137-0.405-25.026C369.364,319.9,362.571,317.034,368.637,304.956z"/>
	<linearGradient id="XMLID_53_" gradientUnits="userSpaceOnUse" x1="397.5137" y1="343.2544" x2="397.5137" y2="325.6526">
		<stop  offset="0" style="stop-color:#EB6C67"/>
		<stop  offset="1" style="stop-color:#E53817"/>
	</linearGradient>
	<path fill-rule="evenodd" clip-rule="evenodd" fill="url(#XMLID_53_)" d="M397.424,325.321c-4.921,0.092-6.168,10.993-5.037,14.101
		c1.664,4.57,8.044,4.362,9.896,0.933C404.351,336.527,401.928,325.236,397.424,325.321z"/>
	<linearGradient id="XMLID_54_" gradientUnits="userSpaceOnUse" x1="372.8574" y1="356.8486" x2="372.8574" y2="339.2463">
		<stop  offset="0" style="stop-color:#EB6C67"/>
		<stop  offset="1" style="stop-color:#E53817"/>
	</linearGradient>
	<path fill-rule="evenodd" clip-rule="evenodd" fill="url(#XMLID_54_)" d="M372.768,338.915c-4.921,0.092-6.168,10.993-5.037,14.102
		c1.664,4.57,8.044,4.361,9.896,0.933C379.694,350.121,377.271,338.83,372.768,338.915z"/>
	<path fill-rule="evenodd" clip-rule="evenodd" fill="#FFFFFF" d="M369.102,345.94c-1.528,2.037-0.655,10.326,1.89,9.285
		C373.588,354.163,369.218,350.971,369.102,345.94z"/>
	<path fill-rule="evenodd" clip-rule="evenodd" fill="#FFFFFF" d="M393.853,332.44c-1.529,2.037-0.656,10.326,1.889,9.285
		C398.339,340.663,393.968,337.471,393.853,332.44z"/>
	<path fill-rule="evenodd" clip-rule="evenodd" fill="#B3B3B3" d="M369.574,452.92c3.984-7.936,9.804-9.38,17.395-9.38
		c6.385,0,8.692-0.279,14.373,1.591c5.04,1.658,6.9,6.568,6.392,11.534c-0.533,5.197-7.159,4.435-1.222,18.75
		c2.23,5.378,0.292,15.707-8.405,16.517c-11.675,1.085-0.675-25.025-11.513-24.863c-8.746,0.131-9.235,19.737-4.36,31.125
		c2.966,6.93-10.863,9.361-13.299,5.027c-3.022-5.375-1.243-20.137-0.405-25.025C370.302,467.864,363.509,464.999,369.574,452.92z"
		/>
	<path fill-rule="evenodd" clip-rule="evenodd" fill="#990000" d="M368.637,452.357c3.984-7.936,9.804-9.38,17.395-9.38
		c6.385,0,8.692-0.279,14.373,1.591c5.04,1.658,6.9,6.567,6.392,11.534c-0.533,5.197-7.159,4.435-1.222,18.75
		c2.23,5.378,0.292,15.707-8.405,16.516c-11.675,1.086-0.675-25.024-11.513-24.862c-8.746,0.131-9.235,19.737-4.36,31.125
		c2.967,6.93-10.863,9.361-13.299,5.027c-3.022-5.375-1.243-20.137-0.405-25.025C369.364,467.302,362.571,464.436,368.637,452.357z"
		/>
	<linearGradient id="XMLID_55_" gradientUnits="userSpaceOnUse" x1="397.5137" y1="490.6563" x2="397.5137" y2="473.0549">
		<stop  offset="0" style="stop-color:#CF8480"/>
		<stop  offset="1" style="stop-color:#A41C17"/>
	</linearGradient>
	<path fill-rule="evenodd" clip-rule="evenodd" fill="url(#XMLID_55_)" d="M397.424,472.723c-4.921,0.092-6.168,10.992-5.037,14.101
		c1.664,4.57,8.044,4.362,9.896,0.934C404.351,483.929,401.928,472.638,397.424,472.723z"/>
	<linearGradient id="XMLID_56_" gradientUnits="userSpaceOnUse" x1="372.8574" y1="504.25" x2="372.8574" y2="486.6487">
		<stop  offset="0" style="stop-color:#CF8480"/>
		<stop  offset="1" style="stop-color:#A41C17"/>
	</linearGradient>
	<path fill-rule="evenodd" clip-rule="evenodd" fill="url(#XMLID_56_)" d="M372.768,486.316c-4.921,0.092-6.168,10.992-5.037,14.102
		c1.664,4.57,8.044,4.361,9.896,0.933C379.694,497.522,377.271,486.231,372.768,486.316z"/>
	<path fill-rule="evenodd" clip-rule="evenodd" fill="#FFFFFF" d="M369.102,493.342c-1.528,2.037-0.655,10.326,1.89,9.285
		C373.588,501.564,369.218,498.373,369.102,493.342z"/>
	<path fill-rule="evenodd" clip-rule="evenodd" fill="#FFFFFF" d="M393.853,479.842c-1.529,2.037-0.656,10.326,1.889,9.285
		C398.339,488.064,393.968,484.873,393.853,479.842z"/>
</g>
</svg>
