<?xml version="1.0" encoding="utf-8"?>
<!-- Generator: Adobe Illustrator 12.0.0, SVG Export Plug-In . SVG Version: 6.00 Build 51448)  -->
<!DOCTYPE svg PUBLIC "-//W3C//DTD SVG 1.1//EN" "http://www.w3.org/Graphics/SVG/1.1/DTD/svg11.dtd" [
	<!ENTITY ns_svg "http://www.w3.org/2000/svg">
	<!ENTITY ns_xlink "http://www.w3.org/1999/xlink">
]>
<svg  version="1.1" id="Capa_1" xmlns="&ns_svg;" xmlns:xlink="&ns_xlink;" width="979.643" height="742.335"
	 viewBox="0 0 979.643 742.335" overflow="visible" enable-background="new 0 0 979.643 742.335" xml:space="preserve">
<g>
	<g>
		<path fill="#E11B25" d="M972.311,572.135c6.478-0.755,8.332,3.175,6.854,7.83c-3.898,0.535-2.956,0.535-6.854,0
			C971.681,577.733,970.361,574.054,972.311,572.135z"/>
		<path fill="#E11B25" d="M959.575,533.995c5.943-4.498,20.722-2.14,19.589,6.854C971.964,546.069,965.11,536.666,959.575,533.995z"
			/>
		<path fill="#E11B25" d="M968.381,580.938c0.439,3.805,1.068,3.491-0.975,5.881c-1.761,0.125-2.043-1.195-3.899-0.974
			c-0.313-2.266,0.158-3.774,0.975-4.907C965.77,580.938,967.091,580.938,968.381,580.938z"/>
		<path fill="#E11B25" d="M959.575,433.252C948.005,438.407,958.633,419.919,959.575,433.252L959.575,433.252z"/>
		<path fill="#E11B25" d="M945.899,465.512c2.044-4.118,11.162-1.542,10.753,2.957C952.879,471.014,947.094,468.656,945.899,465.512
			z"/>
		<path fill="#E11B25" d="M951.778,549.653c1.353,2.861,2.61,5.849,1.95,10.752C938.477,574.463,928.385,543.364,951.778,549.653z"
			/>
		<path fill="#E11B25" d="M922.41,396.085c-0.942-5.376,7.924-5.346,5.88,0.976C925.869,397.188,923.574,397.188,922.41,396.085z"/>
		<path fill="#E11B25" d="M891.124,531.069c10.722,27.638-27.889,38.109-36.19,17.61c-4.812-11.856-0.818-26.853,16.634-28.394
			C879.27,519.625,888.64,524.624,891.124,531.069z"/>
		<path fill="#E11B25" d="M842.2,187.714c5.816-1.415,13.991-9.623,19.557-4.876C859.053,188.28,849.336,186.677,842.2,187.714z"/>
		<path fill="#E11B25" d="M852.984,571.159c0.44,3.083-1.414,3.837-1.98,5.88c-1.635,0-3.24,0-4.873,0
			C841.099,572.89,848.582,565.594,852.984,571.159z"/>
		<path fill="#E11B25" d="M840.25,623.986c1.981,3.866,0.315,8.364-4.905,7.827c-1.572-2.358-2.484-4.747-0.975-7.827
			C836.35,623.986,838.301,623.986,840.25,623.986z"/>
		<path fill="#E11B25" d="M811.888,632.789c14.149-6.697,15.878,14.966,5.88,16.633
			C808.178,650.994,802.613,637.189,811.888,632.789z"/>
		<path fill="#E11B25" d="M805.033,303.141c1.194-7.327,19.087-10.188,21.539-1.95C824.781,309.178,808.523,310.216,805.033,303.141
			z"/>
		<path fill="#E11B25" d="M772.774,345.212c13.928,5.972,22.952,16.885,19.557,33.267c-6.131,29.493-56.346,24.998-52.824-9.811
			c1.132-11.131,8.804-18.835,19.557-22.482C761.706,343.922,768.496,345.841,772.774,345.212z"/>
		<path fill="#E11B25" d="M761.988,319.774c10.219,2.515,27.293-1.854,31.317,6.854c-6.352,12.356-34.555,13.05-51.849,9.779
			c-12.547-2.392-33.771-24.684-18.583-39.116c6.666-6.384,18.929-5.628,25.437-1.981
			C757.65,300.562,756.768,311.975,761.988,319.774z"/>
		<path fill="#E11B25" d="M772.774,182.838c1.791,5.315-4.309,5.976-6.855,3.9C764.755,181.331,769.723,181.426,772.774,182.838z"/>
		<path fill="#E11B25" d="M772.774,660.175c-1.164,0.817-2.643,1.29-4.905,0.974c-0.126-2.389-0.159-4.717,0.975-5.846
			C771.013,656.055,772.741,657.252,772.774,660.175z"/>
		<path fill="#E11B25" d="M751.235,567.262c3.144-0.882,2.043,2.514,3.931,2.923c-0.66,1.32-2.107,1.824-3.931,1.95
			C751.235,570.498,751.235,568.896,751.235,567.262z"/>
		<path fill="#E11B25" d="M751.235,527.139c0.912,7.768-2.391,11.321-5.88,14.686c-1.32,4.305,4.276,6.728,1.006,9.777
			c-5.44-1.069-2.609-7.388-6.854-10.754c-6.886-5.472-18.111-3.331-25.437,0.977c-4.843-0.694-6.102-5.002-10.755-5.88
			c-2.137-4.686,1.038-7.2,0.975-11.729c-0.189-12.135-9.872-21.319-4.906-31.317c2.925-5.85,10.566-8.208,15.659-13.677
			c5.22,1.95,9.213,5.125,15.658,5.881c1.824,3.427-0.754,3.206-1.948,5.846c11.791,3.175,15.092,14.874,19.557,25.437
			c-2.263,2.358-2.641-1.539-4.905-1.947c-5.533,9.808-18.047,12.765-31.285,7.827c-2.421,0.881-2.673,6.823-0.975,8.804
			c11.509-5.407,25.878,0.85,32.26,6.826C745.67,534.403,746.11,524.657,751.235,527.139z M727.747,513.462
			c6.006,1.667,8.553-3.93,5.88-7.831c-2.925,0.347-5.943,0.568-6.855,2.927C728.91,508.398,727.212,512.016,727.747,513.462z
			 M726.771,500.728c-0.786,0.722-2.608,6.792,0.976,5.881C726.897,503.148,730.262,501.576,726.771,500.728z"/>
		<path fill="#E11B25" d="M733.627,505.632c2.673,3.9,0.126,9.498-5.88,7.831c-0.535-1.446,1.163-5.064-0.976-4.904
			C727.683,506.2,730.702,505.979,733.627,505.632z"/>
		<path fill="#E11B25" d="M732.652,283.581c-0.126,1.762,1.194,2.076,0.975,3.9c-1.258,1.354-4.621,1.354-5.88,0
			c0.786-0.848,1.07-2.201,1.007-3.9C730.042,283.581,731.364,283.581,732.652,283.581z"/>
		<path fill="#E11B25" d="M731.677,349.111c-0.126,1.76,1.196,2.072,0.975,3.93c-2.548,1.226-2.956,2.137-5.881,0.974
			c-0.313-2.263,0.158-3.774,0.976-4.904C729.067,349.111,730.356,349.111,731.677,349.111z"/>
		<path fill="#E11B25" d="M728.754,380.428c0.126,2.42-1.542,3.019-1.982,4.874C716.993,385.614,722.999,373.888,728.754,380.428z"
			/>
		<path fill="#E11B25" d="M727.747,506.609c-3.583,0.912-1.761-5.159-0.976-5.881C730.262,501.576,726.897,503.148,727.747,506.609z
			"/>
		<path fill="#E11B25" d="M701.367,444.005c6.634,0.188,23.456,2.893,21.507,11.727
			C714.572,457.399,703.096,448.878,701.367,444.005z"/>
		<path fill="#E11B25" d="M713.095,167.181c-0.096,2.671,1.635,1.98,0,3.899c-0.66,0-1.322,0-1.95,0
			c-1.635-1.919,0.063-1.228,0-3.899C711.773,167.181,712.435,167.181,713.095,167.181z"/>
		<path fill="#E11B25" d="M712.12,194.568c0.817,3.114-1.542,3.019-1.95,4.904c-2.17-0.156-2.107-2.484-1.98-4.904
			C709.51,194.568,710.8,194.568,712.12,194.568z"/>
		<path fill="#E11B25" d="M702.341,733.532c-0.125,1.76,1.196,2.076,0.975,3.93c-0.88,0.408-1.761,0.848-1.948,1.95
			c-2.454,0.157-3.051-1.542-4.905-1.95c-0.126-1.762,1.194-2.076,0.975-3.93C699.072,733.532,700.707,733.532,702.341,733.532z"/>
		<path fill="#E11B25" d="M694.512,412.688c3.238,1.477,2.893,4.4,0.975,6.854C690.047,418.599,690.204,414.512,694.512,412.688z"/>
		<path fill="#E11B25" d="M692.562,177.934c0.692,4.308-2.106,5.094-4.906,5.88c-0.723-0.912-1.792-1.477-2.923-1.95
			C683.948,175.355,690.299,173.721,692.562,177.934z"/>
		<path fill="#E11B25" d="M664.17,167.181c9.748,13.867,3.679,33.832-12.703,41.097c-5.535,0-11.1,0-16.634,0
			c-9.967-6.323-21.004-16.13-15.658-34.243C623.324,159.95,651.781,149.51,664.17,167.181z"/>
		<path fill="#E11B25" d="M664.17,322.698c1.068,3.457-5.974,2.641-3.9-0.973C661.811,321.817,664.011,321.251,664.17,322.698z"/>
		<path fill="#E11B25" d="M664.17,283.581c0.189,2.454-1.479,3.052-2.925,3.9c-2.452,0.19-3.049-1.477-3.898-2.923
			c-0.188-2.454,1.478-3.05,2.923-3.9C662.723,280.471,663.321,282.135,664.17,283.581z"/>
		<path fill="#E11B25" d="M648.542,556.509c-6.697-13.145,15.691-17.953,12.703-1.98
			C659.358,557.796,652.63,558.364,648.542,556.509z"/>
		<path fill="#E11B25" d="M628.953,321.725c1.29,0.344,1.542,1.729,2.956,1.946c-0.912,1.699-3.427,2.549-4.906,1.007
			C627.35,323.389,628.734,323.137,628.953,321.725z"/>
		<path fill="#E11B25" d="M602.541,373.572c52.51-7.67,50.78,59.364,13.708,66.503c-13.708,2.641-18.707-6.54-29.336-6.823
			c-8.111-0.251-22.859,8.018-24.462-5.88c-0.441-3.835,1.887-4.748,1.95-8.804c13.394-3.552,13.739-20.186,18.582-32.293
			c-3.646-8.708-18.582-6.194-21.507-15.626c7.83-14.684,27.891-1.446,37.165,2.923c1.385-1.698-3.489-7.514,1.95-8.803
			C605.905,365.649,603.799,369.58,602.541,373.572z"/>
		<path fill="#E11B25" d="M609.396,480.195c2.2,2.484,0.942,7.421-3.899,5.88c-0.126-2.42-0.157-4.716,0.975-5.88
			C607.447,480.195,608.422,480.195,609.396,480.195z"/>
		<path fill="#E11B25" d="M590.813,265.975c2.767,26.254-19.181,43.39-42.07,39.116c-32.481-6.071-34.336-62.321,1.98-67.477
			C573.141,233.242,589.021,248.994,590.813,265.975z"/>
		<path fill="#E11B25" d="M582.01,458.689c8.834-5.063,11.948,12.104,1.948,10.753C579.211,468.781,576.664,461.738,582.01,458.689z
			"/>
		<path fill="#E11B25" d="M574.179,114.357c10.125-4.873,11.822,12.639,3.931,13.708
			C571.161,128.977,566.382,118.131,574.179,114.357z"/>
		<path fill="#E11B25" d="M558.552,466.488c1.919-1.793,7.201-1.45,5.85,2.954C561.446,469.473,557.954,470.007,558.552,466.488z"/>
		<path fill="#E11B25" d="M557.546,441.081c2.767,0.157,4.183,1.699,3.931,4.874c-2.829,2.327-4.716,1.602-6.855-0.977
			C554.465,442.529,556.131,441.929,557.546,441.081z"/>
		<path fill="#E11B25" d="M538.963,579.965c19.841-21.444,28.236,27.197,0.975,11.727
			C538.65,588.769,538.963,584.209,538.963,579.965z"/>
		<path fill="#E11B25" d="M535.065,332.478c0.471,3.08-2.641,2.61-2.925,4.903C529.53,335.935,532.548,332.005,535.065,332.478z"/>
		<path fill="#E11B25" d="M531.135,387.282c3.301-1.007,1.54,3.018,1.98,4.873C529.719,392.846,529.593,388.728,531.135,387.282z"/>
		<path fill="#E11B25" d="M513.558,564.305c3.332,0.912,4.558,3.93,1.948,5.88c-2.671,0.725-1.98-1.95-3.931-1.95
			C510.885,565.564,513.526,566.255,513.558,564.305z"/>
		<path fill="#E11B25" d="M507.678,452.808c2.577-0.283,3.207,1.351,2.923,3.899c-2.044,0.409-2.578-0.66-3.898-0.976
			C507.207,454.946,507.709,454.159,507.678,452.808z"/>
		<path fill="#E11B25" d="M495.95,694.416c7.483,14.244-4.497,41.349-19.589,40.09c-7.137-0.565-11.665-13.929-11.728-20.53
			C464.444,697.938,482.178,682.185,495.95,694.416z"/>
		<path fill="#E11B25" d="M490.07,439.098c0.692,6.918-0.472,11.917-2.925,15.66c-0.691,5.251,4.842,4.309,4.875,8.803
			c-3.365,7.075-6.414,14.432-11.728,19.557c-19.684-2.984-32.229,4.247-50.875,4.907c-3.271-2.923-6.319-6.068-9.778-8.804
			c-14.684,8.08-42.982-8.49-23.489-19.56c-0.691-3.552-7.453-1.034-9.778-2.954c2.547-2.358,7.326-2.453,7.828-6.822
			c-10.375-14.497,3.021-28.928,9.78-38.174c0.156-3.08-2.484-3.362-4.875-3.896c1.698-3.24,5.943-1.763,6.855,0.973
			c2.202-1.038,3.553-2.954,3.899-5.88c-0.849-3.709-5.094-4.056-7.83-5.847c-0.503-6.7,0.441-11.981,2.925-15.66
			c3.175-0.564,4.558,0.661,6.854,0.977c12.388-5.22,15.282-19.938,31.317-21.51c6.226,2.893,12.043,6.196,17.608,9.78
			c0.408,3.992-3.238,3.93-1.98,8.803c1.068,3.836,3.835,5.945,7.828,6.824c2.484,18.396,13.899,27.859,15.659,46.977
			C484.315,435.736,487.052,437.56,490.07,439.098z"/>
		<path fill="#E11B25" d="M490.07,341.281c0,1.633,0,3.27,0,4.904c-11.885,6.509-23.489,0.377-36.19,1.95
			c-15.502,1.95-29.84,9.088-44.995,9.779c-5.628,0.283-11.729-1.194-17.608,1.98c-3.081,3.019,6.289,5.629,3.898,7.797
			c-4.244-1.352-5.344,0.411-8.803,1.983c-0.566,3.866,6.855,4.808,3.931,7.796c-1.51,3.427-7.012,2.798-6.855,7.831
			c-2.326-1.95-3.521-5.598-7.829-2.923c-1.383,5.312,4.528,3.301,2.923,8.803c-6.256,4.148-14.432,6.415-22.481,8.803
			c-2.358,7.136,2.799,9.433,5.88,13.71c5.22,23.549-19.306,31.505-29.368,17.607c-9.937,0.722-8.835,9.841-14.653,12.703
			c4.936,11.352,12.011,20.594,14.653,34.24c1.635,0,3.271,0,4.905,0c-1.163,8.773,13.238,10.126,15.659,18.583
			c0.094,4.781-0.536,10.315,0.974,13.68c-11.979,6.697-26.223,2.389-26.412-10.756c-0.126-8.521,8.049-11.666,2.925-22.48
			c-2.548-5.376-8.647-11.665-12.704-18.583c-6.477-11.066-12.325-21.915-21.539-30.344c-4.495,3.679,2.454,6.322,2.955,10.753
			c0.222,5.472-3.52,6.952-4.905,10.788c7.012,29.745-35.404,27.104-26.412,0c-6.478-0.283-8.836,3.522-7.829,10.753
			c-6.195-4.747,1.194-8.113-4.875-14.683c0.44-4.561,1.32-6.51,0-10.754c-22.796-8.49-37.102,10.879-51.849,19.557
			c3.301,8.773-0.284,19.935-10.753,20.533c-0.032-0.942-1.196-0.755-1.982-0.977c-1.635-5.06-3.93-14.023-4.873-16.633
			c11.224-4.748,21.004-10.94,30.311-17.607c-2.861-5.598-8.742-8.208-6.823-18.583c-2.076-2.484-7.233-1.885-11.76-1.95
			c2.862-7.23,8.71-11.508,12.734-17.606c-6.98-6.289-16.916-3.05-26.412-2.927c-2.011-4.244-0.565-10.124,2.925-11.727
			c-0.693-2.58-5.598-0.942-5.88-3.93c0.063-4.529,2.799-6.354,7.83-5.881c-8.521-10.532-26.318,2.671-35.217-0.973
			c1.164-8.146,7.987-18.553-0.975-23.457c1.73-5.472,6.855-7.517,9.778-11.76c-6.319-13.521,5.126-22.827,9.78-33.236
			c4.78-10.689,8.836-25.06,16.634-31.317c4.528-0.47,9.086,2.675,12.734,0c0.189-6.037-5.659-6.067-8.803-8.803
			c3.961-6.949-5.724-10.284-4.905-13.677c0.502-4.277,4.433,2.829,7.828,1.947c6.603-9.872-10.219-12.387-10.753-21.537
			c6.792-1.351,12.388,9.747,22.481,4.904c-0.189-13.898-15.659-11.632-16.633-22.48c-0.88-10.345,13.615-15.596,9.811-29.367
			c-3.081-1.103-2.389,1.538-3.931,1.981c-3.364,0.313,0.534-4.621-2.923-5.88c-12.264,0.534-14.401-9.086-24.463-10.753
			c-18.143,15.847-29.714-14.905-13.709-18.583c8.773-2.045,17.672,4.717,25.437,0c11.791-7.169-1.603-23.143,2.956-33.267
			c10.942-0.534,13.489,7.358,20.533,10.754c13.677-4.057,19.934,4.686,26.412,10.753c19.904-5.095,20.375,17.358,29.337,26.413
			c4.905-0.943,2.86-8.898,3.93-13.68c4.527-1.664,7.546-4.842,10.753-7.827c-0.503-14.874,11.288-17.389,14.653-28.364
			c1.006,0,1.98,0,2.956,0c3.396,13.207-2.768,27.326-1.95,39.116c0.408,6.037,4.339,9.464,3.898,14.684
			c0.158,2.137,2.453,2.076,4.905,1.95c0.912,12.295,6.415,17.607,11.729,23.487c5.157-5.125-2.2-13.016-4.905-16.633
			c0-19.243,16.792-21.697,13.71-44.02c2.043,4.812,2.137,11.005,0.975,16.633c25.593-0.251,37.321,29.684,12.703,42.04
			c-5.975-0.439-11.068,0-12.703,3.93c0.502,3.05,1.729,5.438,2.923,7.831c5.598,1.321,5.913-2.58,10.785-1.98
			c3.805,9.021-8.238,13.581-1.98,22.511c14.526-0.501,10.313,17.735,21.538,20.533c-0.848,4.056-3.93,5.85-4.904,9.78
			c1.698,2.767,2.578,0.943,5.879,0.973c0.095,3.05-3.082,2.801-1.949,6.854c2.735,2.014,6.697-1.226,9.779-1.947
			c3.898-14.339,16.57-19.938,29.336-25.44c-0.66,6.322-10.974,14.119-8.805,23.49c-2.986,0.03-3.805-2.076-5.878-2.958
			c-9.465,4.56-16.571,11.478-27.388,14.684c1.761,4.529,6.288,4.247,3.93,10.753c3.68,3.178,10.44,3.24,15.628,4.907
			c1.604,3.144,0.471,5.282,0,8.803c13.93,4.056,24.179-9.024,34.242-8.803c-2.799,7.953-9.402,12.104-16.633,15.626
			c-0.441,2.515,0.063,4.968-2.925,6.854c0,2.609,2.736,2.518,3.931,3.93c-1.729,3.491-5.785,4.655-8.803,6.822
			c1.477,9.655,14.117,4.561,19.556,1.984c3.742-0.16,3.177,3.991,4.875,5.846C431.523,334.741,472.368,324.114,490.07,341.281z
			 M339.426,286.508c1.73-0.882,3.396-1.793,2.924-4.873c-7.767-2.736-9.496,9.808-5.848,14.649c1.635,0,3.238,0,4.873,0
			c1.101-1.824,1.258-4.621,1.95-6.823C342.036,288.489,340.401,287.828,339.426,286.508z M266.069,195.541
			c5.22-1.351,5.943-19.022-1.948-19.557c-3.428,3.427-4.025,9.654-5.88,14.684C262.486,190.576,263.335,196.266,266.069,195.541z
			 M254.341,209.252c1.698-2.076,2.202-2.893,0.975-5.88c-1.478,0.157-3.616-0.344-3.931,0.977
			C253.368,204.974,252.046,208.938,254.341,209.252z M253.336,184.788c1.415-19.996-13.678-23.488-25.406-30.311
			c-2.107,1.793-4.843,2.988-6.854,4.873C219.156,180.48,240.507,178.373,253.336,184.788z M214.22,235.665
			c0.315-2.327,3.396-1.824,2.925-4.907c-0.063-2.862-2.232-3.614-3.9-4.873c-0.88,1.698-3.615,1.603-3.898,3.899
			C211.485,231.2,211.265,235.035,214.22,235.665z M213.246,216.074c10.125-2.797,3.993-22.513-3.898-24.429
			C207.209,200.448,214.377,207.992,213.246,216.074z M201.518,244.469c2.265,0.282,4.213,2.075,4.873-1.007
			C205.166,242.141,201.611,241.953,201.518,244.469z M187.809,385.302c2.578-0.691,4.402-2.107,3.93-5.85
			C188.847,379.83,189.475,383.729,187.809,385.302z"/>
		<path fill="#E11B25" d="M482.24,229.784c0.095-2.926,5.849-2.61,4.905,0.974C484.849,231.074,483.373,230.602,482.24,229.784z"/>
		<path fill="#E11B25" d="M462.683,299.241c0.126-2.797,4.087-1.793,6.855-1.95C469.475,300.28,464.349,300.783,462.683,299.241z"/>
		<path fill="#E11B25" d="M457.778,267.925c-0.912,0.722-1.479,1.793-1.95,2.954c-1.635,0-3.27,0-4.873,0
			c-1.383-4.306,0.063-5.69,2.925-7.827C455.546,264.307,457.715,265.062,457.778,267.925z"/>
		<path fill="#E11B25" d="M453.88,666.056c-3.083,4.621-7.014-2.39-2.925-4.907C452.872,661.843,453.532,663.759,453.88,666.056z"/>
		<path fill="#E11B25" d="M440.17,80.114c1.257,5.754-4.433,7.296-6.823,3.931C434.699,81.813,435.579,79.111,440.17,80.114z"/>
		<path fill="#E11B25" d="M437.246,66.438c1.132,1.164,1.1,3.458,0.974,5.85c-2.452,1.412-3.835,2.389-6.854,0.973
			C431.681,69.33,432.812,66.251,437.246,66.438z"/>
		<path fill="#E11B25" d="M436.271,526.165c1.194,0.439,2.011,1.259,1.948,2.923c-1.729,1.823-2.86-0.409-4.873-0.974
			C433.566,526.73,436.239,527.768,436.271,526.165z"/>
		<path fill="#E11B25" d="M430.391,530.095c4.024,7.357-8.993,10.692-8.803,1.95C423.064,529.248,427.027,528.367,430.391,530.095z"
			/>
		<path fill="#E11B25" d="M404.954,277.704c3.081-0.442,4.369,0.848,3.93,3.931c-1.761-0.126-2.076,1.194-3.93,0.973
			C404.954,280.974,404.954,279.338,404.954,277.704z"/>
		<path fill="#E11B25" d="M406.935,309.021c1.005,3.271-3.051,1.508-4.906,1.947c0-0.661,0-1.287,0-1.947
			C403.665,309.021,405.3,309.021,406.935,309.021z"/>
		<path fill="#E11B25" d="M401.054,277.704c0.095,3.709-1.918,5.282-4.905,5.877c-0.156-1.13-1.761-0.816-2.923-0.974
			C389.924,275.061,398.13,270.912,401.054,277.704z"/>
		<path fill="#E11B25" d="M395.174,265.975c0,1.636,0,3.27,0,4.904c-1.635,0-3.238,0-4.873,0c-0.441-3.805-1.069-3.488,0.975-5.877
			C393.037,264.875,393.32,266.196,395.174,265.975z"/>
		<path fill="#E11B25" d="M381.498,564.305c0.157,2.453-1.542,3.049-1.95,4.907c-2.988,0.69-3.585-1.007-5.88-0.977
			C372.002,562.798,378.887,562.42,381.498,564.305z"/>
		<path fill="#E11B25" d="M378.541,667.03c0.818,2.106,2.547,3.334,1.982,6.856c-1.636,1.287-3.303,2.576-6.855,1.947
			C370.115,673.099,371.09,664.514,378.541,667.03z"/>
		<path fill="#E11B25" d="M370.743,130.015c0.786,0.503,1.572,1.007,2.925,0.976c-0.346,5.187,0.88,11.979-3.93,12.703
			C365.462,141.901,367.913,131.117,370.743,130.015z"/>
		<path fill="#E11B25" d="M367.788,605.402c6.572,0.691,10.408,11.475,4.905,15.657C365.24,621.941,364.267,609.363,367.788,605.402
			z"/>
		<path fill="#E11B25" d="M369.738,233.684c0.818,4.4-1.729,5.438-4.874,5.877C363.481,237.676,364.802,232.269,369.738,233.684z"/>
		<path fill="#E11B25" d="M367.788,277.704c0.44,1.886,2.106,2.451,1.95,4.904c-3.238,1.447-4.78,2.515-7.798,0
			C361.625,278.708,363.794,277.327,367.788,277.704z"/>
		<path fill="#E11B25" d="M360.934,527.139c1.288-1.256,3.616-1.256,4.906,0c-0.126,2.484-1.416,3.807-3.9,3.93
			C362.065,529.309,360.713,528.996,360.934,527.139z"/>
		<path fill="#E11B25" d="M345.306,209.252c1.824,0.095,0.661,3.239,2.925,2.923c-0.158,3.113-2.202,4.309-1.95,7.83
			C341.532,218.276,342.131,212.3,345.306,209.252z"/>
		<path fill="#E11B25" d="M341.376,686.589c8.018-1.606,9.307,6.411,5.88,10.752c-2.83-0.095-6.415,0.535-7.83-0.976
			C337.194,693.442,338.672,687.657,341.376,686.589z"/>
		<path fill="#E11B25" d="M346.281,667.03c0,1.289,0,2.609,0,3.899c-3.082,0.473-4.371-0.848-3.931-3.899
			C343.671,667.03,344.961,667.03,346.281,667.03z"/>
		<path fill="#E11B25" d="M342.35,281.635c0.472,3.08-1.194,3.991-2.924,4.873c0.975,1.32,2.61,1.98,3.899,2.954
			c-0.692,2.202-0.849,4.999-1.95,6.823c-1.635,0-3.238,0-4.873,0C332.855,291.443,334.584,278.899,342.35,281.635z"/>
		<path fill="#E11B25" d="M333.547,670.929c2.86,0.031,2.326,5.533,1.005,6.853c-1.32-0.973-3.647-0.912-3.93-2.923
			C329.774,671.715,333.17,672.814,333.547,670.929z"/>
		<path fill="#E11B25" d="M313.989,493.906c0.126,4.338-0.816,7.64-5.848,6.822c-1.887-3.144-1.887-5.628,0-8.803
			C311.505,491.17,312.26,493.024,313.989,493.906z"/>
		<path fill="#E11B25" d="M307.134,613.232c5.346,1.98,7.358,10.94,4.905,17.607c-9.37,0.408-7.64-10.407-6.854-17.607
			C305.845,613.232,306.506,613.232,307.134,613.232z"/>
		<path fill="#E11B25" d="M310.09,123.161c3.333,1.759,1.572,6.602-0.974,7.83C304.965,129.355,306.129,124.009,310.09,123.161z"/>
		<path fill="#E11B25" d="M299.336,127.092c4.78,0.473,2.232,6.35,0.976,8.772c-2.986,0.062-3.805-2.045-5.88-2.923
			C295.438,130.362,298.299,129.636,299.336,127.092z"/>
		<path fill="#E11B25" d="M286.602,481.172c-0.095,2.483-3.647,2.324-4.873,0.973C282.389,479.096,284.338,480.885,286.602,481.172z
			"/>
		<path fill="#E11B25" d="M268.994,2.861c12.609-10.723,21.098,12.104,4.905,12.703C269.969,13.111,267.83,7.639,268.994,2.861z"/>
		<path fill="#E11B25" d="M273.899,140.767c-0.755,3.179-4.371,3.461-4.905,6.857c-3.081-0.191-2.263-7.234-0.975-8.807
			C271.1,138.348,271.856,140.203,273.899,140.767z"/>
		<path fill="#E11B25" d="M270.944,83.072c-0.504,1.446-1.446,2.453-1.95,3.899c-2.263,0.283-1.068-2.831-2.925-2.926
			C266.165,81.561,269.717,81.72,270.944,83.072z"/>
		<path fill="#E11B25" d="M266.069,665.079c-1.036,21.098,3.207,51.255,2.925,77.256c-1.635,0-3.27,0-4.873,0
			c-0.314-31.348-3.521-51.724-1.982-85.083C263.869,659.45,264.467,662.755,266.069,665.079z"/>
		<path fill="#E11B25" d="M264.121,175.985c7.892,0.534,7.168,18.206,1.948,19.557c-2.734,0.725-3.583-4.965-7.828-4.873
			C260.095,185.638,260.693,179.411,264.121,175.985z"/>
		<path fill="#E11B25" d="M262.139,522.265c4.088,9.624,0.818,19.434,1.007,31.287C261.353,546.382,260.442,532.641,262.139,522.265
			z"/>
		<path fill="#E11B25" d="M263.146,592.699c0,2.263,0,4.56,0,6.823c-1.353,3.114-0.975-3.458-1.007-4.873
			c-1.948,0.313-3.049-0.221-2.923-1.95C260.536,592.699,261.826,592.699,263.146,592.699z"/>
		<path fill="#E11B25" d="M259.216,483.118c1.32,0,2.61,0,3.931,0c-0.724,3.87-1.069,8.083-3.931,9.78
			C259.216,489.659,259.216,486.388,259.216,483.118z"/>
		<path fill="#E11B25" d="M263.146,655.302c-2.013,1.29-0.534-9.246-1.007-12.733C264.152,641.279,262.675,651.78,263.146,655.302z"
			/>
		<path fill="#E11B25" d="M256.291,16.537c2.61,1.29,5.724,2.106,4.875,6.854c-0.786,0.85-2.673,0.567-2.925,1.95
			c-2.862-0.062-3.648-2.232-4.905-3.896C252.895,18.362,255.976,18.865,256.291,16.537z"/>
		<path fill="#E11B25" d="M259.216,71.311c3.835,1.259,5.251,6.163-0.975,5.88C258.115,74.771,258.084,72.474,259.216,71.311z"/>
		<path fill="#E11B25" d="M255.316,203.371c1.227,2.988,0.723,3.804-0.975,5.88c-2.295-0.313-0.973-4.278-2.956-4.904
			C251.7,203.027,253.839,203.528,255.316,203.371z"/>
		<path fill="#E11B25" d="M253.336,15.564c-3.867-3.365,0.786-8.051,3.93-3.899C256.102,13.111,256.417,16.033,253.336,15.564z"/>
		<path fill="#E11B25" d="M227.929,154.478c11.728,6.823,26.821,10.315,25.406,30.311c-12.829-6.415-34.179-4.309-32.26-25.438
			C223.087,157.466,225.823,156.271,227.929,154.478z"/>
		<path fill="#E11B25" d="M252.361,473.342c1.194,17.702-25.029-0.283-8.804-5.849C248.745,465.702,252.078,469.064,252.361,473.342
			z"/>
		<path fill="#E11B25" d="M249.437,495.855c9.998-1.542,13.395,15.813,1.948,18.583c-1.824-0.786-3.583-1.636-5.848-1.95
			C241.355,504.784,243.273,496.798,249.437,495.855z"/>
		<path fill="#E11B25" d="M245.538,443.029c0.786,0.503,1.572,1.007,2.925,0.977c-0.85,1.446-1.479,3.113-3.93,2.923
			C244.122,444.886,245.223,444.352,245.538,443.029z"/>
		<path fill="#E11B25" d="M247.488,532.045c3.679,1.416,2.704,11.57-2.955,9.78C242.927,538.303,243.935,533.144,247.488,532.045z"
			/>
		<path fill="#E11B25" d="M237.709,128.065c-11.163-2.199,1.069-16.287,4.873-5.877
			C242.237,125.424,239.657,126.431,237.709,128.065z"/>
		<path fill="#E11B25" d="M240.633,134.887c-1.132,1.793-2.547,3.335-3.898,4.907C226.483,138.002,237.362,125.519,240.633,134.887z
			"/>
		<path fill="#E11B25" d="M225.949,58.608c8.112-1.729,11.539,20.06,6.855,27.387C222.333,86.151,217.05,60.496,225.949,58.608z"/>
		<path fill="#E11B25" d="M219.126,83.072c-0.158,1.823-0.66,3.27-1.98,3.899c-2.736,0.156-2.799-2.392-2.925-4.907
			C216.485,81.781,217.962,82.221,219.126,83.072z"/>
		<path fill="#E11B25" d="M217.146,230.758c0.471,3.083-2.61,2.58-2.925,4.907c-2.955-0.629-2.736-4.465-4.873-5.88
			c0.282-2.297,3.018-2.201,3.898-3.899C214.913,227.144,217.082,227.896,217.146,230.758z"/>
		<path fill="#E11B25" d="M209.348,191.645c7.891,1.916,14.023,21.632,3.898,24.429
			C214.377,207.992,207.209,200.448,209.348,191.645z"/>
		<path fill="#E11B25" d="M211.296,597.572c5.376,6.414-4.276,11.604-7.829,4.907C204.536,599.301,206.579,597.099,211.296,597.572z
			"/>
		<path fill="#E11B25" d="M197.587,94.798c7.767-0.092,11.572,8.429,8.804,15.66C198.781,110.144,194.6,102.597,197.587,94.798z"/>
		<path fill="#E11B25" d="M206.391,243.461c-0.66,3.083-2.609,1.289-4.873,1.007C201.611,241.953,205.166,242.141,206.391,243.461z"
			/>
		<path fill="#E11B25" d="M196.612,483.118c2.673,0.034,2.328,4.625,0.975,5.881c-3.051,0.442-3.112-2.107-2.925-4.904
			C195.795,484.252,196.393,483.904,196.612,483.118z"/>
		<path fill="#E11B25" d="M191.739,379.451c0.471,3.743-1.353,5.159-3.93,5.85C189.475,383.729,188.847,379.83,191.739,379.451z"/>
		<path fill="#E11B25" d="M191.739,450.859c-4.591,0-9.15,0-13.71,0c0.725-3.019-2.671-1.885-1.948-4.903
			C182.211,446.646,187.462,448.248,191.739,450.859z"/>
		<path fill="#E11B25" d="M164.32,554.528c6.289-5.849,17.546-20.815,30.342-15.629c-2.452,31.474-29.021,58.2-47.918,77.256
			c0.125,2.419,0.125,4.717-1.006,5.88c-4.623-0.785-12.043-0.094-11.73,6.854c-4.653-3.206-12.325-3.332-15.658-7.831
			c2.171-7.827,5.22-18.393,8.805-26.41C135.487,576.096,149.07,568.769,164.32,554.528z"/>
		<path fill="#E11B25" d="M171.175,211.201c0.628,3.617,4.843,3.647,3.93,8.803C167.465,226.293,157.654,209.031,171.175,211.201z"
			/>
		<path fill="#E11B25" d="M159.447,662.125c0.44,3.081-0.849,4.37-3.931,3.931c0-1.637,0-3.271,0-4.907
			C157.591,660.74,158.127,661.843,159.447,662.125z"/>
		<path fill="#E11B25" d="M133.035,337.381c9.904,2.641,19.085-4.59,22.481,2.923c-3.836,5.788-30.5,22.735-32.261,7.831
			C122.595,342.571,129.45,340.934,133.035,337.381z"/>
		<path fill="#E11B25" d="M139.889,183.815c0.252,4.182-2.86,4.968-4.906,6.854C121.558,189.412,134.764,171.74,139.889,183.815z"/>
		<path fill="#E11B25" d="M138.914,314.868c-2.169,6.918-10.093,11.035-13.708,15.66c-0.315,0.408,1.383,1.29,0.975,1.95
			c-0.567,1.164-3.207-3.899-7.83-1.95c-8.677-13.081-37.794-1.134-39.115-22.483c8.082-19.244,27.922-5.69,44.995-6.854
			C131.714,303.172,133.098,311.254,138.914,314.868z"/>
		<path fill="#E11B25" d="M127.155,475.291c3.364-0.347,4.15,5.659,0,4.904C125.331,478.341,127.752,478.436,127.155,475.291z"/>
		<path fill="#E11B25" d="M120.332,405.865c0,1.603,0,3.239,0,4.873c-1.446,1.446-6.414,1.446-7.83,0
			C111.338,404.923,116.496,403.915,120.332,405.865z"/>
		<path fill="#E11B25" d="M109.547,417.592c0.849,18.018-10.69,27.608-23.456,34.244c-5.88,0-11.76,0-17.608,0
			c-27.23-8.898-28.707-47.416-4.905-58.704C83.45,383.729,108.572,396.054,109.547,417.592z"/>
		<path fill="#E11B25" d="M107.597,53.704c0.314,3.9-1.887,5.313-5.848,4.904c0.378-2.358-1.792-2.137-1.006-4.904
			C102.064,52.32,106.309,52.32,107.597,53.704z"/>
		<path fill="#E11B25" d="M103.699,378.478c0.628,5.534-5.565,8.331-8.805,6.823C94.989,380.176,99.894,379.894,103.699,378.478z"/>
		<path fill="#E11B25" d="M102.724,356.938C99.706,366.405,93.511,353.041,102.724,356.938L102.724,356.938z"/>
		<path fill="#E11B25" d="M97.819,173.061c-10.753,7.453-38.549-18.362-28.362-25.437C81.405,139.355,96.216,164.728,97.819,173.061
			z"/>
		<path fill="#E11B25" d="M89.989,282.608c2.673,0,2.327,4.622,0.975,5.881c-0.849-0.786-2.2-1.069-3.898-1.007c0-1.29,0-2.61,0-3.9
			C88.448,283.677,89.832,283.741,89.989,282.608z"/>
		<path fill="#E11B25" d="M75.337,359.895c-2.956-18.93,23.424-7.956,11.729,2.923C83.198,364.421,77.789,362.536,75.337,359.895z"
			/>
		<path fill="#E11B25" d="M85.115,478.245c21.759,16.13,7.327,55.529-25.437,50.843C32.983,516.606,49.868,466.046,85.115,478.245z"
			/>
		<path fill="#E11B25" d="M69.457,370.649c1.917-1.164,5.472-3.206,7.83-0.974c0,4.244-1.448,7.01-4.906,7.796
			C70.684,375.929,68.828,374.517,69.457,370.649z"/>
		<path fill="#E11B25" d="M54.773,301.191c0.063,3.992-3.615,4.213-7.83,3.9C42.982,298.612,53.075,294.338,54.773,301.191z"/>
		<path fill="#E11B25" d="M50.874,282.609c4.717-0.817,6.573,1.224,6.855,4.873c-2.389,1.603-4.779,2.515-7.83,1.007
			C49.775,286.065,49.742,283.772,50.874,282.609z"/>
		<path fill="#E11B25" d="M46.944,396.085c2.516,0.095,2.327,3.647,0.975,4.873c-1.729,0.126-2.044-1.194-3.898-0.974
			C43.171,396.841,46.567,397.974,46.944,396.085z"/>
		<path fill="#E11B25" d="M41.095,308.045c3.678-0.848,3.459,4.372,1.95,5.849c-1.32,0-2.61,0-3.93,0
			C38.077,310.247,41.567,311.128,41.095,308.045z"/>
		<path fill="#E11B25" d="M40.12,438.125C30.562,436.458,44.365,429.542,40.12,438.125L40.12,438.125z"/>
		<path fill="#E11B25" d="M30.342,306.065c1.068,3.522,3.27,9.906,0.975,13.709C24.21,320.278,19.431,304.084,30.342,306.065z"/>
		<path fill="#E11B25" d="M23.487,521.292c-0.126,2.798-1.225,4.622-4.906,3.9c-0.313-2.266,0.158-3.743,0.975-4.907
			C21.6,519.877,22.167,520.975,23.487,521.292z"/>
		<path fill="#E11B25" d="M12.734,201.421c13.898-11.666,13.803,18.489,0,6.857C12.734,205.981,12.734,203.687,12.734,201.421z"/>
		<path fill="#E11B25" d="M16.633,255.221c-0.126,1.759,1.195,2.045,0.975,3.899c-1.856,1.855-1.761-0.567-4.875,0
			c0-1.289,0-2.61,0-3.899C14.024,255.221,15.312,255.221,16.633,255.221z"/>
		<path fill="#E11B25" d="M10.753,242.488c5.283-0.755,5.88,5.846,2.956,7.83c-2.044-0.568-3.175-2.045-4.905-2.926
			C8.647,244.972,10.345,244.373,10.753,242.488z"/>
		<path fill="#E11B25" d="M0,474.315c20.186,3.9,17.828,40.406,0,44.997C0,504.312,0,489.315,0,474.315z"/>
		<path fill="#E11B25" d="M0,314.868c7.798,0.976,7.075,13.52,0,14.684C0,324.679,0,319.774,0,314.868z"/>
	</g>
</g>
</svg>
