<?xml version="1.0" encoding="UTF-8" standalone="no"?>
<!-- Created with Inkscape (http://www.inkscape.org/) -->

<svg
   xmlns:dc="http://purl.org/dc/elements/1.1/"
   xmlns:cc="http://creativecommons.org/ns#"
   xmlns:rdf="http://www.w3.org/1999/02/22-rdf-syntax-ns#"
   xmlns:svg="http://www.w3.org/2000/svg"
   xmlns="http://www.w3.org/2000/svg"
   xmlns:sodipodi="http://sodipodi.sourceforge.net/DTD/sodipodi-0.dtd"
   xmlns:inkscape="http://www.inkscape.org/namespaces/inkscape"
   width="458.09061"
   height="204.53624"
   id="svg32519"
   version="1.1"
   inkscape:version="0.48.3.1 r9886"
   sodipodi:docname="fundacion tic lugo.svg"
   inkscape:export-filename="/home/lacon/desenhos/Utilidades-Plantillas/logos/institucións/fundacion tic lugo.png"
   inkscape:export-xdpi="90"
   inkscape:export-ydpi="90">
  <defs
     id="defs32521" />
  <sodipodi:namedview
     id="base"
     pagecolor="#ffffff"
     bordercolor="#666666"
     borderopacity="1.0"
     inkscape:pageopacity="0.0"
     inkscape:pageshadow="2"
     inkscape:zoom="0.86910605"
     inkscape:cx="92.229379"
     inkscape:cy="320.25175"
     inkscape:document-units="px"
     inkscape:current-layer="layer1"
     showgrid="false"
     showguides="true"
     inkscape:guide-bbox="true"
     fit-margin-top="0"
     fit-margin-left="0"
     fit-margin-right="0"
     fit-margin-bottom="0"
     inkscape:window-width="1680"
     inkscape:window-height="1026"
     inkscape:window-x="0"
     inkscape:window-y="24"
     inkscape:window-maximized="1" />
  <metadata
     id="metadata32524">
    <rdf:RDF>
      <cc:Work
         rdf:about="">
        <dc:format>image/svg+xml</dc:format>
        <dc:type
           rdf:resource="http://purl.org/dc/dcmitype/StillImage" />
        <dc:title></dc:title>
      </cc:Work>
    </rdf:RDF>
  </metadata>
  <g
     inkscape:label="Capa 1"
     inkscape:groupmode="layer"
     id="layer1"
     transform="translate(-583.35239,-489.0092)">
    <path
       inkscape:connector-curvature="0"
       id="path32936"
       d="m 707.50467,643.17434 c -11.74064,-3.15745 -25.55372,-13.17284 -31.92067,-23.14457 -9.87526,-15.46634 -11.44939,-34.60521 -4.29261,-52.19145 3.86008,-9.48534 6.64289,-13.33813 14.35649,-19.8765 8.43624,-7.15092 17.16205,-11.1366 28.47331,-13.00573 8.35772,-1.38107 9.99597,-1.37389 17.35568,0.076 12.24866,2.41312 21.92234,7.44281 29.81891,15.5039 10.9296,11.15732 16.06321,23.72063 16.08469,39.36351 0.0341,24.82285 -16.9632,47.18586 -40.52968,53.32415 -7.32841,1.90881 -22.15765,1.88386 -29.34612,-0.0494 z m 26.19292,-2.98898 c 14.43721,-3.15814 26.87674,-13.32829 34.35533,-28.08779 4.73151,-9.33794 4.84704,-9.78315 5.181,-19.96597 0.27409,-8.35753 -0.0648,-11.75297 -1.71546,-17.18741 -2.61722,-8.6166 -8.22063,-17.27192 -15.45068,-23.86587 -16.2311,-14.80312 -40.6628,-17.20573 -59.9605,-5.89653 -2.41,1.41236 -7.30355,5.60658 -10.87456,9.32051 -13.77835,14.32976 -18.13993,33.44264 -11.82211,51.8057 8.4196,24.47197 35.00058,39.40876 60.28698,33.87736 z m -20.96955,-36.06603 c -4.61877,-2.99486 -6.85223,-6.26433 -7.82537,-11.45521 -1.92331,-10.25921 7.30343,-20.96924 17.98967,-20.88169 3.6913,0.0302 10.11386,3.68066 13.32074,7.57116 2.76661,3.35637 3.17926,4.61262 3.17926,9.6788 0,7.14625 -1.80124,10.84158 -7.18591,14.74222 -5.63312,4.0806 -13.50203,4.21986 -19.47839,0.34472 z"
       style="fill:#f4f3f2"
       sodipodi:nodetypes="cssssssssccssssssssssscssss" />
    <path
       inkscape:connector-curvature="0"
       id="path32934"
       d="m 731.89234,692.66722 c -33.6648,-3.45753 -66.20634,-17.25478 -96.29741,-40.82904 -9.72857,-7.62166 -9.78627,-20.35981 -0.12119,-26.75586 5.63424,-3.72856 11.88709,-3.45211 17.82347,0.78802 26.65821,19.0409 39.24887,25.40862 62.56788,31.64372 9.38951,2.51059 11.39467,2.68214 31.52725,2.69731 17.0723,0.0129 23.25049,-0.35912 30,-1.80624 18.64589,-3.99774 32.39603,-8.70285 52.60553,-18.00087 12.06804,-5.55228 16.93138,-6.0076 22.65149,-2.12069 4.76636,3.23882 6.74298,7.12987 6.74298,13.27378 0,9.19088 -3.86774,12.53785 -25.01512,21.64692 -23.38315,10.07211 -46.90083,16.55751 -68.98488,19.02375 -14.58589,1.62889 -21.08662,1.71411 -33.5,0.4392 z m -12.75,-47.63573 c 1.7875,-0.22182 4.7125,-0.22182 6.5,0 1.7875,0.22183 0.325,0.40333 -3.25,0.40333 -3.575,0 -5.0375,-0.1815 -3.25,-0.40333 z m -7.1557,-4.96618 c -6.97707,-1.44935 -15.00626,-4.94717 -19.5943,-8.53602 -1.375,-1.07554 -2.33446,-2.02728 -2.13212,-2.11497 0.20233,-0.0877 -0.30439,-1.73443 -1.12604,-3.65943 -1.42312,-3.33414 -13.66475,-16.86177 -13.81231,-15.26331 -0.15434,1.67194 -3.11448,-7.52839 -3.84091,-11.93781 -0.71053,-4.31292 -0.62773,-4.62258 1.00271,-3.75 0.97745,0.52312 2.27259,0.95112 2.87809,0.95112 1.50754,0 0.80245,-21.90492 -0.73569,-22.85554 -1.97445,-1.22028 4.47192,-12.42128 10.58688,-18.3954 l 5.67939,-5.54858 18.45517,-3.17531 c 13.63399,-2.3458 20.73041,-3.09039 27.1646,-2.85024 4.79018,0.17879 8.63536,0.55078 8.54483,0.82665 -0.0905,0.27587 3.45654,5.00087 7.88238,10.5 4.42584,5.49913 10.26519,12.90911 12.97635,16.46662 l 4.92936,6.4682 0.64776,13.0318 0.64775,13.0318 -4.46352,9.1968 c -3.17398,6.53978 -5.83076,10.44001 -9.19602,13.5 -6.33558,5.76085 -8.84259,7.71593 -9.30336,7.25516 -0.21106,-0.21105 -4.36815,1.1154 -9.23799,2.94766 -4.86984,1.83227 -8.22269,3.55999 -7.45078,3.83938 0.77191,0.27939 0.27847,0.53661 -1.09653,0.57158 -1.375,0.035 -4.75,0.25952 -7.5,0.49898 -2.75,0.23946 -8.10756,-0.21015 -11.9057,-0.99914 z m 20.21979,-36.2907 c 5.38467,-3.90064 7.18591,-7.59597 7.18591,-14.74222 0,-5.06618 -0.41265,-6.32243 -3.17926,-9.6788 -3.20688,-3.8905 -9.62944,-7.54092 -13.32074,-7.57116 -7.48856,-0.0613 -15.64223,6.07323 -17.56552,13.21579 -3.09692,11.50107 4.97101,21.75667 17.11565,21.75667 4.68227,0 6.35434,-0.51037 9.76396,-2.98028 z m -49.88978,25.23028 -2.42431,-2.75 2.75,2.42431 c 2.57029,2.26589 3.20859,3.07569 2.42431,3.07569 -0.17912,0 -1.41662,-1.2375 -2.75,-2.75 z m 3.94813,-2 c -1.24387,-1.58606 -1.2085,-1.62143 0.37756,-0.37756 0.9625,0.75485 1.75,1.54235 1.75,1.75 0,0.82304 -0.82119,0.29331 -2.12756,-1.37244 z m 79.12756,-2.75 c 0.68469,-0.825 1.46989,-1.5 1.74489,-1.5 0.275,0 -0.0602,0.675 -0.74489,1.5 -0.68469,0.825 -1.46989,1.5 -1.74489,1.5 -0.275,0 0.0602,-0.675 0.74489,-1.5 z m 12.30987,-35 c -0.006,-3.3 0.17648,-4.77056 0.40466,-3.26791 0.22817,1.50265 0.23276,4.20265 0.0102,6 -0.22256,1.79735 -0.40925,0.56791 -0.41486,-2.73209 z m -107.11493,-4 c -0.0204,-1.65 0.18707,-2.44606 0.46099,-1.76903 0.27393,0.67703 0.2906,2.02703 0.037,3 -0.25354,0.97297 -0.47766,0.41903 -0.49804,-1.23097 z m -4.03705,-0.5 c 0,-1.375 0.22697,-1.9375 0.50439,-1.25 0.27741,0.6875 0.27741,1.8125 0,2.5 -0.27742,0.6875 -0.50439,0.125 -0.50439,-1.25 z m -73.65789,-26.35628 c -8.35463,-3.86743 -12.11924,-14.83627 -7.62268,-22.21002 4.65966,-7.64122 34.30145,-26.54514 55.12268,-35.15424 44.82614,-18.5346 96.09834,-15.61849 150.78111,8.57568 16.15333,7.14697 19.86642,9.53364 22.32273,14.34841 5.00336,9.80739 -3.03053,22.79645 -14.09987,22.79645 -1.77761,0 -9.47028,-2.82704 -17.34887,-6.37566 -65.92059,-29.6916 -119.04695,-25.27272 -171.0363,14.22622 -6.60474,5.01795 -12.71127,6.29635 -18.1188,3.79316 z m 81.5,0.50826 c 0,-0.64974 1.62611,-2.86224 3.61359,-4.91667 l 3.6136,-3.73531 -3.30649,4.5 c -1.81857,2.475 -3.44469,4.6875 -3.6136,4.91667 -0.16891,0.22916 -0.3071,-0.11494 -0.3071,-0.76469 z m 9.5,-10.15198 c 0.99549,-1.1 2.03498,-2 2.30998,-2 0.275,0 -0.31449,0.9 -1.30998,2 -0.99549,1.1 -2.03498,2 -2.30998,2 -0.275,0 0.31449,-0.9 1.30998,-2 z m 35.75,-10.71625 c 1.5125,-0.22913 3.9875,-0.22913 5.5,0 1.5125,0.22912 0.275,0.41659 -2.75,0.41659 -3.025,0 -4.2625,-0.18747 -2.75,-0.41659 z m -3.97917,-3.88792 c 0.33229,-0.33229 1.19479,-0.36781 1.91667,-0.0789 0.79773,0.31922 0.56078,0.55618 -0.60417,0.60416 -1.05416,0.0434 -1.64479,-0.19292 -1.3125,-0.52522 z"
       style="fill:#e59f24"
       sodipodi:nodetypes="ssssssssssssssssssscssssssscsscsscccsscsscsssssssssscsssssssssssscssccccccsccsssssssssssscscssssssssssccccc" />
    <path
       style="font-size:25.59907913px;font-style:normal;font-variant:normal;font-weight:normal;font-stretch:normal;line-height:125%;letter-spacing:0px;word-spacing:0px;fill:#f4f3f2;fill-opacity:1;stroke:none;font-family:FreeSans;-inkscape-font-specification:FreeSans"
       d="m 983.65625,647.4375 c -1.513,2e-5 -2.852,0.27737 -4.0625,0.78125 -1.1915,0.48523 -2.1563,1.09728 -2.875,1.84375 -0.6998,0.7465 -1.2772,1.60467 -1.75,2.59375 -0.4728,0.98911 -0.79858,1.92932 -0.96875,2.84375 -0.17024,0.8958 -0.25,1.79172 -0.25,2.6875 0,3.13525 0.8661,5.7093 2.625,7.6875 1.759,1.97818 4.04455,2.96875 6.84375,2.96875 2.7424,0 5.0955,-1.08518 7.0625,-3.25 l 0.65625,2.71875 1.65625,0 0,-10.90625 -8.625,0 0,2.3125 6.3125,0 0,0.5625 c 0,1.82891 -0.61435,3.3243 -1.84375,4.5 -1.2105,1.17573 -2.76495,1.75 -4.65625,1.75 -1.1348,0 -2.14235,-0.18924 -3.03125,-0.5625 -0.8889,-0.3919 -1.60775,-0.85898 -2.15625,-1.4375 -0.5296,-0.59719 -0.9721,-1.27868 -1.3125,-2.0625 -0.3405,-0.7838 -0.58635,-1.54083 -0.71875,-2.25 -0.1326,-0.72782 -0.1875,-1.44708 -0.1875,-2.15625 0,-2.50071 0.64485,-4.51959 1.96875,-6.03125 1.324,-1.53028 3.08725,-2.28124 5.28125,-2.28125 1.5698,10e-6 2.90955,0.39111 3.96875,1.15625 1.0781,0.7465 1.74745,1.75616 2.03125,3.0625 l 2.6875,0 c -0.3594,-2.07149 -1.31175,-3.67409 -2.84375,-4.8125 -1.5131,-1.13837 -3.4483,-1.71873 -5.8125,-1.71875 z m 47.24995,0 c -2.9693,2e-5 -5.3841,0.99057 -7.2187,2.96875 -1.8346,1.95954 -2.75,4.55877 -2.75,7.75 0,3.19124 0.9154,5.77181 2.75,7.75 1.8346,1.95952 4.2617,2.9375 7.25,2.9375 3.0261,0 5.4343,-1.00314 7.25,-3 1.8157,-1.99684 2.7187,-4.50798 2.7187,-7.53125 0,-3.28454 -0.9155,-5.92806 -2.75,-7.90625 -1.8156,-1.97818 -4.2237,-2.96873 -7.25,-2.96875 z m -149.68745,0.34375 0,20.40625 12.84375,0 0,-2.28125 -10.21875,0 0,-18.125 -2.625,0 z m 46.25,0 0,14.34375 c 0,2.07151 0.69414,3.72446 2.09375,4.9375 1.41849,1.19439 3.35374,1.78125 5.8125,1.78125 2.4209,0 4.34382,-0.59946 5.78125,-1.8125 1.45632,-1.21303 2.18748,-2.8534 2.1875,-4.90625 l 0,-14.34375 -2.625,0 0,14.34375 c -10e-6,1.38101 -0.49184,2.4662 -1.4375,3.25 -0.94569,0.78381 -2.24188,1.15625 -3.90625,1.15625 -1.60766,0 -2.87918,-0.36592 -3.84375,-1.09375 -0.94568,-0.74648 -1.43751,-1.83819 -1.4375,-3.3125 l 0,-14.34375 -2.625,0 z M 1030.9062,649.75 c 2.2319,10e-6 4.0321,0.76356 5.375,2.3125 1.3429,1.54898 2,3.61212 2,6.1875 0,2.46341 -0.6694,4.46971 -2.0312,6 -1.3429,1.5303 -3.1186,2.28125 -5.3125,2.28125 -2.194,0 -3.982,-0.75095 -5.3437,-2.28125 -1.3429,-1.54897 -2,-3.57434 -2,-6.09375 0,-2.51937 0.6572,-4.56344 2,-6.09375 1.3429,-1.54894 3.1186,-2.31249 5.3124,-2.3125 z"
       id="path32842"
       inkscape:connector-curvature="0" />
    <text
       xml:space="preserve"
       style="font-size:25.59907913px;font-style:normal;font-variant:normal;font-weight:normal;font-stretch:normal;line-height:125%;letter-spacing:0px;word-spacing:0px;fill:#f4f3f2;fill-opacity:1;stroke:none;font-family:SKULLX;-inkscape-font-specification:SKULLX"
       x="791.38763"
       y="585.9267"
       id="text32761"
       sodipodi:linespacing="125%"
       transform="scale(1.1082476,0.9023254)"><tspan
         sodipodi:role="line"
         id="tspan32763"
         x="791.38763"
         y="585.9267"
         style="font-style:normal;font-variant:normal;font-weight:normal;font-stretch:normal;fill:#f4f3f2;fill-opacity:1;font-family:FreeSans;-inkscape-font-specification:FreeSans">FUNDACIÓN</tspan></text>
    <path
       style="fill:#f4f3f2;fill-opacity:1"
       d="m 875.44297,683.56468 c 0,-0.65863 28.33333,-1 83,-1 54.66663,0 83.00003,0.34137 83.00003,1 0,0.65863 -28.3334,1 -83.00003,1 -54.66667,0 -83,-0.34137 -83,-1 z"
       id="path32833"
       inkscape:connector-curvature="0" />
    <path
       style="fill:#f4f3f2;fill-opacity:1"
       d="m 996.20701,632.56897 c -13.3828,-4.02962 -20.21156,-17.95531 -20.67185,-42.15547 -0.62236,-32.72165 8.95596,-46.84882 31.76384,-46.84882 16.1296,0 25.1425,5.78004 29.1266,18.67926 1.1096,3.59228 2.0174,7.78339 2.0174,9.31358 0,2.77341 -0.031,2.78597 -9.8757,3.99193 -13.3845,1.63959 -13.4878,1.6048 -14.2722,-4.80652 -0.7317,-5.97973 -3.0222,-9.17825 -6.5729,-9.17825 -7.3619,0 -8.74182,4.33056 -8.76287,27.5 -0.0146,16.01995 0.20365,18.44001 1.98367,22 1.7872,3.57451 2.4347,4.03186 6.0864,4.29951 5.2014,0.38122 6.0341,-0.66418 7.4151,-9.30936 0.6092,-3.8129 1.2013,-7.02628 1.3159,-7.14086 0.3398,-0.33985 22.1445,2.7895 22.6045,3.24413 0.9417,0.93089 -2.1765,13.97391 -4.3716,18.28578 -4.9353,9.69453 -11.6349,13.10662 -25.5503,13.01289 -5.225,-0.0352 -10.73121,-0.43471 -12.23599,-0.8878 z"
       id="path32805"
       inkscape:connector-curvature="0" />
    <path
       style="fill:#f4f3f2;fill-opacity:1"
       d="m 896.44297,597.56468 0,-35 -9.5,0 -9.5,0 0,-9.51466 0,-9.51467 30.25,0.26467 30.25,0.26466 0.28753,9.25 0.28752,9.25 -9.53752,0 -9.53753,0 0,35 0,35 -11.5,0 -11.5,0 0,-35 z"
       id="path32803"
       inkscape:connector-curvature="0" />
    <path
       style="fill:#f4f3f2;fill-opacity:1"
       d="m 944.44297,588.03193 0,-44.53275 11.25,0.28275 11.25,0.28275 0.2604,44.25 0.2604,44.25 -11.5104,0 -11.5104,0 0,-44.53275 z"
       id="path32801"
       inkscape:connector-curvature="0" />
    <path
       style="fill:#f4f3f2;fill-opacity:1"
       d="m 875.44297,494.56468 c 0,-0.65864 28.33333,-1 83,-1 54.66663,0 83.00003,0.34136 83.00003,1 0,0.65864 -28.3334,1 -83.00003,1 -54.66667,0 -83,-0.34136 -83,-1 z"
       id="path32767"
       inkscape:connector-curvature="0" />
  </g>
</svg>
