<?xml version="1.0" encoding="UTF-8" standalone="no"?>
<!-- Created with Inkscape (http://www.inkscape.org/) -->

<svg
   xmlns:dc="http://purl.org/dc/elements/1.1/"
   xmlns:cc="http://creativecommons.org/ns#"
   xmlns:rdf="http://www.w3.org/1999/02/22-rdf-syntax-ns#"
   xmlns:svg="http://www.w3.org/2000/svg"
   xmlns="http://www.w3.org/2000/svg"
   xmlns:xlink="http://www.w3.org/1999/xlink"
   xmlns:sodipodi="http://sodipodi.sourceforge.net/DTD/sodipodi-0.dtd"
   xmlns:inkscape="http://www.inkscape.org/namespaces/inkscape"
   width="9091.0967"
   height="7695.3818"
   id="svg2"
   version="1.1"
   inkscape:version="0.48.3.1 r9886"
   sodipodi:docname="showcase-expomar.svg">
  <defs
     id="defs4">
    <linearGradient
       id="linearGradient4007">
      <stop
         style="stop-color:#b79a22;stop-opacity:1;"
         offset="0"
         id="stop4009" />
      <stop
         id="stop4015"
         offset="0.5"
         style="stop-color:#f6d842;stop-opacity:1;" />
      <stop
         style="stop-color:#7f6920;stop-opacity:1;"
         offset="0.75"
         id="stop4017" />
      <stop
         id="stop4019"
         offset="0.875"
         style="stop-color:#b79a22;stop-opacity:1;" />
      <stop
         style="stop-color:#f8db42;stop-opacity:1;"
         offset="1"
         id="stop4011" />
    </linearGradient>
    <linearGradient
       id="linearGradient3934">
      <stop
         style="stop-color:#002e62;stop-opacity:1;"
         offset="0"
         id="stop3936" />
      <stop
         style="stop-color:#57c6c0;stop-opacity:1;"
         offset="1"
         id="stop3938" />
    </linearGradient>
    <inkscape:path-effect
       fuse_tolerance="0"
       vertical_pattern="false"
       prop_units="false"
       tang_offset="0"
       normal_offset="0"
       spacing="0"
       scale_y_rel="false"
       prop_scale="1"
       copytype="single_stretched"
       pattern="m 8756.0702,-5336.7668 0,10 10,-5 z"
       is_visible="true"
       id="path-effect5869"
       effect="skeletal" />
    <inkscape:path-effect
       fuse_tolerance="0"
       vertical_pattern="false"
       prop_units="false"
       tang_offset="0"
       normal_offset="0"
       spacing="0"
       scale_y_rel="false"
       prop_scale="1"
       copytype="single_stretched"
       pattern="m 7304.6035,-5141.5022 0,10 10,-5 z"
       is_visible="true"
       id="path-effect5849"
       effect="skeletal" />
    <marker
       inkscape:stockid="Arrow1Lend"
       orient="auto"
       refY="0"
       refX="0"
       id="Arrow1Lend"
       style="overflow:visible">
      <path
         id="path4804"
         d="M 0,0 5,-5 -12.5,0 5,5 0,0 z"
         style="fill-rule:evenodd;stroke:#000000;stroke-width:1pt"
         transform="matrix(-0.8,0,0,-0.8,-10,0)"
         inkscape:connector-curvature="0" />
    </marker>
    <marker
       inkscape:stockid="Arrow1Lstart"
       orient="auto"
       refY="0"
       refX="0"
       id="Arrow1Lstart"
       style="overflow:visible">
      <path
         id="path4801"
         d="M 0,0 5,-5 -12.5,0 5,5 0,0 z"
         style="fill-rule:evenodd;stroke:#000000;stroke-width:1pt"
         transform="matrix(0.8,0,0,0.8,10,0)"
         inkscape:connector-curvature="0" />
    </marker>
    <inkscape:path-effect
       effect="skeletal"
       id="path-effect4027"
       is_visible="true"
       pattern="m 5443.0812,-5349.7844 0,10 10,-5 z"
       copytype="single_stretched"
       prop_scale="1"
       scale_y_rel="false"
       spacing="0"
       normal_offset="0"
       tang_offset="0"
       prop_units="false"
       vertical_pattern="false"
       fuse_tolerance="0" />
    <inkscape:path-effect
       effect="skeletal"
       id="path-effect4019"
       is_visible="true"
       pattern="m 4616.4611,-5453.9255 0,10 10,-5 z"
       copytype="single_stretched"
       prop_scale="1"
       scale_y_rel="false"
       spacing="0"
       normal_offset="0"
       tang_offset="0"
       prop_units="false"
       vertical_pattern="false"
       fuse_tolerance="0" />
    <inkscape:path-effect
       fuse_tolerance="0"
       vertical_pattern="false"
       prop_units="false"
       tang_offset="0"
       normal_offset="0"
       spacing="0"
       scale_y_rel="false"
       prop_scale="1"
       copytype="single_stretched"
       pattern="m 3770.3146,-5564.5754 0,10 10,-5 z"
       is_visible="true"
       id="path-effect4011"
       effect="skeletal" />
    <inkscape:path-effect
       effect="skeletal"
       id="path-effect4003"
       is_visible="true"
       pattern="M 0,0 0,10 10,5 z"
       copytype="single_stretched"
       prop_scale="1"
       scale_y_rel="false"
       spacing="0"
       normal_offset="0"
       tang_offset="0"
       prop_units="false"
       vertical_pattern="false"
       fuse_tolerance="0" />
    <filter
       id="filter3950"
       inkscape:label="Noise fill"
       inkscape:menu="ABCs"
       inkscape:menu-tooltip="Basic noise fill texture; adjust color in Flood"
       color-interpolation-filters="sRGB">
      <feTurbulence
         id="feTurbulence3952"
         numOctaves="5"
         baseFrequency="0.02"
         type="fractalNoise" />
      <feColorMatrix
         id="feColorMatrix3954"
         result="result0"
         values="1 0 0 0 0 0 1 0 0 0 0 0 1 0 0 0 0 0 3 -1 " />
      <feFlood
         id="feFlood3956"
         flood-opacity="0.20000000000000001"
         flood-color="rgb(87,198,192)"
         result="result1" />
      <feBlend
         id="feBlend3958"
         in2="SourceGraphic"
         mode="normal"
         in="result1"
         result="result2" />
      <feComposite
         id="feComposite3960"
         in2="result0"
         operator="out"
         result="result3" />
      <feComposite
         id="feComposite3962"
         in2="SourceGraphic"
         operator="atop" />
    </filter>
    <linearGradient
       inkscape:collect="always"
       xlink:href="#linearGradient3934"
       id="linearGradient3991"
       x1="1666.4117"
       y1="5069.5552"
       x2="1666.4116"
       y2="5080.7954"
       gradientUnits="userSpaceOnUse"
       gradientTransform="matrix(1,0,0,1.0927288,-4.3256617e-6,-461.80115)" />
    <filter
       id="filter3997"
       inkscape:label="Noise transparency"
       inkscape:menu="ABCs"
       inkscape:menu-tooltip="Basic noise transparency texture"
       color-interpolation-filters="sRGB">
      <feTurbulence
         id="feTurbulence3999"
         type="fractalNoise"
         numOctaves="5"
         baseFrequency="0.02"
         result="result1" />
      <feComposite
         id="feComposite4001"
         in2="result1"
         operator="in"
         result="result2"
         in="SourceGraphic" />
      <feColorMatrix
         id="feColorMatrix4003"
         result="result3"
         values="1 0 0 0 0 0 1 0 0 0 0 0 1 0 0 0 0 0 3 -1 "
         in="result2" />
    </filter>
    <linearGradient
       inkscape:collect="always"
       xlink:href="#linearGradient4007"
       id="linearGradient4013"
       x1="859.15652"
       y1="5051.8985"
       x2="1125.1175"
       y2="5051.8985"
       gradientUnits="userSpaceOnUse"
       gradientTransform="translate(-9.614299,-11.768623)" />
  </defs>
  <sodipodi:namedview
     id="base"
     pagecolor="#ffffff"
     bordercolor="#666666"
     borderopacity="1.0"
     inkscape:pageopacity="0.0"
     inkscape:pageshadow="2"
     inkscape:zoom="0.72101147"
     inkscape:cx="888.07582"
     inkscape:cy="2484.3741"
     inkscape:document-units="px"
     inkscape:current-layer="layer2"
     showgrid="false"
     fit-margin-top="100"
     fit-margin-left="100"
     fit-margin-right="100"
     fit-margin-bottom="100"
     inkscape:window-width="1680"
     inkscape:window-height="1026"
     inkscape:window-x="0"
     inkscape:window-y="24"
     inkscape:window-maximized="1"
     inkscape:snap-bbox="false"
     showguides="true"
     inkscape:guide-bbox="true"
     inkscape:bbox-nodes="true"
     inkscape:snap-bbox-edge-midpoints="true"
     inkscape:snap-bbox-midpoints="true"
     inkscape:bbox-paths="true"
     inkscape:snap-nodes="false">
    <sodipodi:guide
       orientation="0,1"
       position="1186.4117,2355.2519"
       id="guide3107" />
    <sodipodi:guide
       orientation="1,0"
       position="1186.4117,2355.2519"
       id="guide3109" />
    <sodipodi:guide
       orientation="1,0"
       position="706.41168,2715.252"
       id="guide3977" />
    <sodipodi:guide
       orientation="1,0"
       position="1666.4117,2715.252"
       id="guide3979" />
    <sodipodi:guide
       orientation="0,1"
       position="1666.4117,2715.252"
       id="guide3981" />
    <sodipodi:guide
       orientation="0,1"
       position="1666.4117,1995.2519"
       id="guide3983" />
    <sodipodi:guide
       orientation="1,0"
       position="716.41168,2501.804"
       id="guide3993" />
    <sodipodi:guide
       orientation="0,1"
       position="872.38557,2705.252"
       id="guide3995" />
    <sodipodi:guide
       orientation="1,0"
       position="849.54222,2655.252"
       id="guide4021" />
  </sodipodi:namedview>
  <metadata
     id="metadata7">
    <rdf:RDF>
      <cc:Work
         rdf:about="">
        <dc:format>image/svg+xml</dc:format>
        <dc:type
           rdf:resource="http://purl.org/dc/dcmitype/StillImage" />
        <dc:title></dc:title>
      </cc:Work>
    </rdf:RDF>
  </metadata>
  <g
     inkscape:label="Esquema"
     inkscape:groupmode="layer"
     id="layer1"
     transform="translate(-2441.424,6020.3421)"
     style="display:none"
     sodipodi:insensitive="true">
    <path
       style="fill:#666666;fill-rule:evenodd;stroke:none"
       d="m 1715.3757,2297.9385 5.9052,-8.0704 c -29.5204,-21.2996 -57.5377,-44.7175 -82.4743,-71.1094 -20.2685,-21.4476 -38.4381,-44.9123 -53.6203,-70.2082 -13.4708,-22.4329 -24.5689,-46.3105 -33.7307,-70.9204 -8.8939,-23.8885 -16.0227,-48.4679 -22.6408,-73.2053 -6.8362,-25.5602 -13.1768,-51.3019 -20.31,-76.8596 -7.7103,-27.6269 -16.3749,-55.0233 -26.7971,-81.7638 -11.8167,-30.3161 -25.8747,-59.7455 -42.1133,-87.9059 -19.3659,-33.5826 -41.7519,-65.3515 -66.2335,-95.3477 24.0709,30.3267 45.9988,62.3685 64.8581,96.1285 15.8139,28.3073 29.4197,57.823 40.7725,88.1627 0,0 0,0 0,0 10.0142,26.7605 18.2671,54.1565 25.5786,81.7957 6.764,25.5716 12.7471,51.3722 19.2513,77.0892 6.2947,24.8962 13.1371,49.7338 21.8023,74.0314 0,0 0,0 0,0 8.9315,25.0421 19.873,49.4409 33.2898,72.5025 15.1308,25.9947 33.3153,50.1685 53.6735,72.2993 25.0347,27.2101 53.1681,51.4071 82.7887,73.3814 z"
       id="path4001"
       inkscape:path-effect="#path-effect4003"
       inkscape:original-d="m 1718.3283,2293.9033 c -266.8616,-195.2646 -130.1764,-364.494 -344.9674,-631.3555"
       inkscape:connector-curvature="0"
       transform="translate(3047.8357,-6007.1751)"
       sodipodi:nodetypes="cc" />
    <path
       inkscape:connector-curvature="0"
       inkscape:original-d="m 5456.0988,-3277.1809 c -279.8792,-182.247 -39.0529,-751.7687 -322.1866,-989.3406"
       inkscape:path-effect="#path-effect4011"
       id="path4009"
       d="m 5453.3704,-3272.9909 5.4568,-8.38 c -16.6711,-10.7442 -32.1442,-23.3687 -45.9559,-37.6129 -13.4308,-13.846 -25.3051,-29.2297 -35.5816,-45.6304 -10.4549,-16.6834 -19.2681,-34.4244 -26.7245,-52.7376 0,0 0,0 0,0 -7.7761,-19.1002 -14.077,-38.8272 -19.3114,-58.8529 -11.2523,-43.0354 -17.6473,-87.3244 -22.1988,-131.7736 0,-10e-5 0,-10e-5 -1e-4,-10e-5 -4.8673,-47.5766 -7.5263,-95.4103 -10.2472,-143.2607 -2.7686,-48.7122 -5.5274,-97.4823 -10.429,-146.083 -4.7552,-47.1659 -11.4961,-94.248 -22.8244,-140.3098 0,0 0,0 0,0 -10.7427,-43.689 -25.7475,-86.5396 -47.4422,-125.9416 -10.6378,-19.3187 -22.878,-37.7611 -36.7526,-54.8853 -14.2017,-17.5277 -30.1146,-33.6557 -47.4473,-48.0627 17.1982,14.5673 32.9448,30.8289 46.9576,48.4557 13.6904,17.2209 25.7264,35.7298 36.1522,55.086 21.2659,39.4778 35.8025,82.3024 46.1094,125.932 10.8657,46.0038 17.1413,92.9886 21.4534,140.0906 4.4414,48.5326 6.7419,97.2508 9.0594,145.9876 2.2748,47.8693 4.4947,95.8027 8.9359,143.623 0,0 0,10e-5 0,10e-5 4.1446,44.6706 10.1847,89.3625 21.1637,133.0666 5.1122,20.3438 11.3357,40.4604 19.0883,60.0332 7.4341,18.7703 16.302,37.0348 26.9018,54.3163 10.4244,16.9935 22.5439,32.9955 36.3317,47.4842 14.1869,14.9027 30.1072,28.1455 47.3048,39.4553 z"
       style="fill:#666666;fill-rule:evenodd;stroke:none"
       sodipodi:nodetypes="cc" />
    <path
       sodipodi:nodetypes="cc"
       style="fill:#666666;fill-rule:evenodd;stroke:none"
       d="m 8897.6698,-2797.2981 3.1888,-9.478 c -168.2596,-56.3469 -341.3137,-97.6235 -516.1099,-127.4998 -163.5519,-27.9544 -328.5987,-45.9959 -493.849,-59.6652 -153.3464,-12.6857 -306.9276,-21.5188 -460.2369,-33.4305 -1e-4,0 -1e-4,0 -2e-4,0 -71.4307,-5.5502 -142.8012,-11.8114 -213.9698,-19.8548 -67.3864,-7.6162 -134.5988,-16.824 -201.3128,-28.8583 -63.0634,-11.3762 -125.6927,-25.2809 -187.24,-43.0375 -58.5858,-16.9025 -116.1976,-37.3199 -171.7612,-62.3887 -54.0431,-24.3825 -106.1263,-53.2096 -154.8943,-86.9182 -10e-5,-1e-4 -10e-5,-1e-4 -10e-5,-1e-4 -49.3468,-34.1077 -95.2445,-73.2261 -136.6522,-116.65 -44.1224,-46.2695 -83.1288,-97.3643 -117.0217,-151.6125 -37.9226,-60.6973 -69.507,-125.2708 -95.9662,-191.8073 0,0 0,-1e-4 0,-1e-4 -30.6085,-76.9712 -54.435,-156.5617 -73.4615,-237.2095 -22.3608,-94.7813 -38.1232,-191.0607 -49.5079,-287.7952 11.1153,96.7658 26.6106,193.101 48.7155,287.981 18.8086,80.7319 42.4281,160.4399 72.8534,237.5783 26.3009,66.682 57.7513,131.4381 95.58,192.3655 0,0 0,0 0,1e-4 33.8104,54.4549 72.7699,105.7851 116.8954,152.3188 41.4123,43.6713 87.3491,83.0469 136.7752,117.4131 48.8461,33.9619 101.027,63.0367 155.1836,87.6503 55.6785,25.3051 113.4086,45.9489 172.1066,63.0586 61.6638,17.9746 124.4026,32.0894 187.5574,43.662 66.8104,12.2429 134.1066,21.6545 201.5539,29.4668 71.233,8.2512 142.6517,14.7177 214.1055,20.4694 1e-4,0 1e-4,0 1e-4,0 153.3537,12.3448 306.9085,21.6054 460.1,34.7087 165.0864,14.122 329.8657,32.5959 492.9999,60.9514 174.3479,30.3047 346.8316,71.9504 514.3684,128.5817 z"
       id="path4017"
       inkscape:path-effect="#path-effect4019"
       inkscape:original-d="M 8899.2642,-2802.0371 C 7506.3769,-3270.6722 6224.1394,-2574.2285 6028.8749,-4253.5038"
       inkscape:connector-curvature="0" />
    <path
       inkscape:connector-curvature="0"
       inkscape:original-d="m 4364.692,1207.5214 c -2238.3522,980.0161 -2111.7874,-3060.0422 -1214.3219,-3847.9436 897.4655,-787.9014 4473.8617,99.0143 4968.4189,-158.4226 370.7293,-192.9795 279.5197,-896.2922 284.8799,-1640.9898"
       inkscape:path-effect="#path-effect5849"
       id="path5847"
       d="m 4366.6974,1212.1016 -4.0108,-9.1604 c -125.9006,55.1745 -256.6112,100.1441 -391.2966,126.7851 -57.9421,11.4639 -116.5744,19.4748 -175.4843,23.1274 -54.1151,3.3553 -108.466,3.0266 -162.4463,-1.6578 -50.4726,-4.3797 -100.6203,-12.5748 -149.7356,-24.9047 -46.9549,-11.7868 -92.9641,-27.3564 -137.3671,-46.6317 -43.4782,-18.8728 -85.4161,-41.2967 -125.3409,-66.8636 -39.967,-25.5934 -77.9199,-54.3319 -113.639,-85.6185 -1e-4,-10e-5 -1e-4,-2e-4 -2e-4,-2e-4 -36.3881,-31.8724 -70.463,-66.3861 -102.2382,-102.8998 -32.7532,-37.63742 -63.0668,-77.39935 -91.1191,-118.69772 C 2854.6614,818.19903 2805.4318,724.0936 2764.049,626.78565 2719.4516,521.91259 2683.94,413.24801 2655.2781,302.87297 c -1e-4,-2e-4 -1e-4,-3.9e-4 -2e-4,-5.9e-4 -30.4767,-117.36914 -53.186,-236.723374 -69.8082,-356.887425 -17.3221,-125.228185 -28.0095,-251.361295 -33.1263,-377.705905 -5.2127,-128.71907 -4.6303,-257.66971 1.2492,-386.37403 5.8484,-128.01555 16.9389,-255.79502 33.3044,-382.89792 15.8684,-123.2407 36.6848,-245.8551 63.0299,-367.2806 24.8452,-114.5104 54.5795,-227.9839 90.4173,-339.5216 32.7682,-101.9811 70.5881,-202.3936 115.4524,-299.6163 39.6554,-85.9297 84.7473,-169.4868 138.1046,-247.5579 1e-4,-10e-5 2e-4,-3e-4 4e-4,-5e-4 23.8022,-34.828 49.2681,-68.5243 76.785,-100.4601 25.3304,-29.3973 52.398,-57.3102 81.522,-82.8981 28.6766,-25.1982 59.3996,-48.0573 91.4603,-68.8397 10e-5,-1e-4 2e-4,-2e-4 3e-4,-2e-4 34.061,-22.0787 69.6326,-41.8194 106.141,-59.6298 38.9945,-19.023 79.0612,-35.8445 119.7749,-50.9123 43.4765,-16.09 87.6941,-30.1778 132.3526,-42.6913 97.8395,-27.416 197.6985,-47.3766 298.1959,-62.733 111.2891,-17.0045 223.4234,-28.2954 335.7789,-35.9265 121.4362,-8.2475 243.155,-12.1733 364.8872,-13.2203 1e-4,0 2e-4,0 3e-4,0 128.5215,-1.1052 257.0668,1.0259 385.5329,5.3703 2e-4,0 4e-4,0 6e-4,0 132.6647,4.4865 265.2479,11.3493 397.7256,19.8393 133.9249,8.5828 267.7429,18.8385 401.4684,30.1839 1e-4,0 2e-4,1e-4 3e-4,1e-4 260.3828,22.0912 520.3993,48.3837 780.3862,74.8996 120.66,12.306 241.318,24.6592 362.0321,36.4636 110.5991,10.8153 221.2469,21.1917 332.0042,30.3044 97.7436,8.0421 195.5786,15.1475 293.539,20.0187 43.2132,2.1488 86.4517,3.8505 129.7094,4.8623 1e-4,0 2e-4,0 3e-4,0 38.9676,0.9115 77.9534,1.2695 116.9324,0.7427 2e-4,0 4e-4,0 6e-4,0 34.3897,-0.4647 68.7797,-1.6074 103.1031,-3.8939 29.4997,-1.965 58.9634,-4.7564 88.2265,-9.0491 24.342,-3.5704 48.5784,-8.15 72.306,-14.7281 10.0803,-2.7947 20.0657,-5.9621 29.859,-9.6609 8.693,-3.283 17.2399,-6.9864 25.4905,-11.285 2e-4,-10e-5 3e-4,-2e-4 5e-4,-3e-4 22.775,-11.8671 44.3742,-25.9933 64.3336,-42.152 10e-5,0 2e-4,-1e-4 3e-4,-2e-4 19.7683,-16.0042 37.9164,-33.983 54.2946,-53.4343 16.8311,-19.9894 31.8015,-41.5134 45.0705,-64.0151 0,0 10e-5,-1e-4 10e-5,-2e-4 13.9818,-23.7104 26.0897,-48.4987 36.6703,-73.9 23.3837,-56.1405 39.4497,-115.1043 51.4424,-174.6982 13.6789,-67.9692 22.0555,-136.9129 27.7339,-205.9965 0,-2e-4 0,-4e-4 0,-6e-4 6.3385,-77.1124 9.2518,-154.4696 10.5901,-231.8224 1.4542,-84.0486 1.0035,-168.1168 -0,-252.168 -2.1651,-181.1472 -6.8128,-362.2797 -5.5833,-543.4336 -1.3784,181.1528 3.1204,362.294 5.1366,543.4388 0.9356,84.05 1.3172,168.1138 -0.206,252.1513 -1.4019,77.3427 -4.3781,154.6822 -10.7781,231.7643 0,2e-4 0,4e-4 0,6e-4 -5.734,69.0571 -14.1625,137.9591 -27.8876,205.8653 -12.0345,59.5387 -28.129,118.4226 -51.5225,174.4504 -10.584,25.3495 -22.6877,50.0787 -36.6566,73.7217 -10e-5,2e-4 -3e-4,3e-4 -4e-4,5e-4 -13.2565,22.4372 -28.204,43.8915 -45.0005,63.8055 -16.3439,19.3777 -34.4469,37.2826 -54.1578,53.213 -19.901,16.0844 -41.4343,30.142 -64.1356,41.9471 -2e-4,10e-5 -4e-4,2e-4 -6e-4,3e-4 -8.1934,4.2611 -16.6913,7.9341 -25.3436,11.1944 -9.7476,3.6727 -19.6935,6.8182 -29.7413,9.5954 -23.6534,6.538 -47.832,11.0847 -72.1352,14.6303 -29.2147,4.2615 -58.6393,7.0243 -88.1106,8.9636 -2e-4,0 -4e-4,0 -7e-4,0 -34.2896,2.2562 -68.6513,3.3694 -103.0191,3.8057 -38.9539,0.4945 -77.9179,0.1046 -116.8678,-0.8384 -2e-4,0 -4e-4,0 -6e-4,0 -43.2377,-1.0469 -86.4586,-2.7835 -129.6568,-4.9671 -97.9276,-4.9501 -195.7345,-12.1345 -293.4578,-20.2556 -110.7336,-9.2024 -221.3609,-19.6687 -331.9447,-30.5742 -120.6972,-11.9029 -241.3412,-24.3549 -361.9918,-36.7601 -259.9665,-26.7298 -519.9767,-53.2376 -780.3772,-75.546 -3e-4,-10e-5 -5e-4,-10e-5 -7e-4,-10e-5 -133.7341,-11.457 -267.5674,-21.8244 -401.5158,-30.5193 -132.5006,-8.601 -265.1166,-15.5747 -397.8254,-20.172 -2e-4,0 -4e-4,0 -6e-4,0 -128.5085,-4.4518 -257.1106,-6.6894 -385.7056,-5.6895 -121.8013,0.9469 -243.611,4.7759 -365.1636,12.9304 -112.4622,7.5442 -224.7372,18.7572 -336.2063,35.6941 -100.6583,15.2934 -200.7318,35.2142 -298.8462,62.6168 -44.7857,12.5087 -89.149,26.6035 -132.7907,42.7131 -40.8686,15.0857 -81.1111,31.9433 -120.3036,51.0216 -36.6943,17.8619 -72.4729,37.6809 -106.7631,59.866 -32.2776,20.8827 -63.2334,43.8782 -92.1594,69.2503 -29.3666,25.762 -56.6403,53.8372 -82.1385,83.3841 -27.7001,32.0977 -53.3239,65.942 -77.2572,100.9032 0,1e-4 -1e-4,2e-4 -2e-4,3e-4 -53.6435,78.3638 -98.9674,162.1701 -138.7926,248.2982 -45.063,97.4493 -83.0565,198.0629 -115.9691,300.2145 -35.9984,111.726 -65.8803,225.3761 -90.8581,340.0486 0,10e-5 -10e-5,2e-4 -10e-5,3e-4 -26.4868,121.5983 -47.4369,244.3845 -63.4297,367.7945 -16.4943,127.2778 -27.7069,255.24033 -33.6695,383.44692 -5.995,128.89636 -6.6842,258.05701 -1.5689,387.00527 5.0207,126.56919 15.6259,252.95708 32.8815,378.47288 16.557,120.439362 39.2277,240.115 69.6951,357.85579 10e-5,2e-4 10e-5,4e-4 2e-4,5.9e-4 28.6504,110.72424 64.2027,219.80234 108.8978,325.15874 41.4698,97.75902 90.8846,192.38885 150.5345,280.3729 28.1944,41.58415 58.6866,81.64591 91.6561,119.59761 31.9858,36.8194 66.3131,71.6436 102.9971,103.8311 36.0109,31.5967 74.2969,60.6352 114.6399,86.5182 40.3019,25.8559 82.6479,48.5422 126.566,67.6499 44.8532,19.5136 91.3235,35.2828 138.7508,47.2291 1e-4,0 2e-4,0 3e-4,0 49.6087,12.4949 100.2373,20.8137 151.1775,25.2741 1e-4,0 2e-4,0 3e-4,0 54.4788,4.7698 109.2968,5.1495 163.846,1.8095 59.3806,-3.6359 118.4424,-11.6527 176.7705,-23.1462 135.5649,-26.7195 266.9953,-71.7941 393.4361,-127.1021 z"
       style="fill:#666666;fill-rule:evenodd;stroke:none;marker-start:none;marker-end:none"
       sodipodi:nodetypes="czsc" />
    <path
       inkscape:connector-curvature="0"
       inkscape:original-d="m 8821.1581,569.53125 c 1597.4659,617.34685 2640.5179,225.54034 2608.3949,-2037.37115 -18.747,-1320.6229 -756.011,-1832.1992 -1703.6687,-2577.3817"
       inkscape:path-effect="#path-effect5869"
       id="path5867"
       d="m 8822.9605,564.8674 -3.6048,9.3277 c 187.0271,72.13834 377.8286,135.21477 572.7633,182.32469 87.5585,21.15946 175.9503,39.02978 265.0426,52.52383 82.766,12.53622 166.1527,21.29148 249.812,25.06338 2e-4,0 3e-4,10e-6 4e-4,2e-5 77.9049,3.51282 156.062,2.68861 233.822,-3.68259 73.028,-5.98323 145.712,-16.88931 217.061,-33.72079 0,-3e-5 0,-6e-5 0,-9e-5 68.151,-16.07712 135.063,-37.59694 199.504,-65.04954 63.193,-26.92185 123.961,-59.56476 181.127,-97.64965 57.957,-38.61265 112.167,-82.78986 161.923,-131.48554 52.205,-51.09343 99.502,-107.10382 141.914,-166.5278 45.8,-64.17152 85.941,-132.28084 121.138,-202.7739 0,-6e-5 0,-1.2e-4 0,-1.7e-4 38.767,-77.641938 71.582,-158.1666 99.623,-240.24488 0,-1.2e-4 0,-2.3e-4 0,-3.5e-4 31.22,-91.38342 56.55,-184.70773 77.375,-278.96378 23.28,-105.36453 40.941,-211.91629 54.392,-318.94753 31.779,-252.87006 40.636,-508.18891 36.848,-762.93081 -2.285,-153.9101 -14.469,-307.8174 -40.05,-459.6203 -22.668,-134.5155 -55.984,-267.3238 -101.46,-395.934 -42.117,-119.1058 -94.697,-234.4959 -156.91,-344.4315 -60.542,-106.983 -130.116,-208.7525 -206.379,-305.13 -77.378,-97.7859 -161.549,-190.0702 -249.876,-278.0577 -92.069,-91.7151 -188.626,-178.8272 -287.419,-263.2298 0,0 0,-10e-5 0,-2e-4 -104.417,-89.2066 -211.344,-175.4226 -319.025,-260.6464 -114.4943,-90.6169 -229.8598,-180.123 -344.6977,-270.3013 114.7179,90.3309 229.9651,179.9911 344.3357,270.7578 107.565,85.3649 214.37,171.7173 318.652,261.0488 0,10e-5 0,2e-4 0,3e-4 98.666,84.5208 195.082,171.7387 286.99,263.5381 88.172,88.0681 172.171,180.4103 249.356,278.221 76.073,96.4007 145.443,198.1621 205.768,305.0962 61.991,109.884 114.347,225.1913 156.244,344.1795 45.241,128.4838 78.33,261.1451 100.788,395.4989 25.346,151.623 37.305,305.3428 39.387,459.0716 3.442,254.6045 -5.743,509.69471 -37.823,762.20371 -13.578,106.87517 -31.352,213.23655 -54.728,318.37078 -20.912,94.04984 -46.308,187.12857 -77.566,278.22154 0,1.2e-4 0,2.3e-4 0,3.5e-4 -28.075,81.816597 -60.89,162.039227 -99.615,239.33409 -35.159,70.17644 -75.212,137.93643 -120.87,201.72309 -42.279,59.06589 -89.386,114.70465 -141.339,165.41282 -49.514,48.32845 -103.434,92.15079 -161.05,130.42376 -56.828,37.75203 -117.233,70.09469 -180.038,96.75361 -64.046,27.18706 -130.567,48.47967 -198.329,64.37282 -70.946,16.6399 -143.246,27.38644 -215.915,33.24609 -77.38,6.23925 -155.1844,6.95308 -232.7694,3.35403 -1e-4,-1e-5 -1e-4,-1e-5 -2e-4,-1e-5 -83.3165,-3.86535 -166.3878,-12.70165 -248.8709,-25.3051 C 9569.7037,786.73496 9481.5924,768.7976 9394.2861,747.57772 9199.903,700.33455 9009.5899,637.13007 8822.9605,564.8674 z"
       style="fill:#666666;fill-rule:evenodd;stroke:none"
       sodipodi:nodetypes="csc" />
    <rect
       style="fill:#666666;fill-opacity:1;fill-rule:nonzero;stroke:none"
       id="rect3000"
       width="240"
       height="320"
       x="4204.626"
       y="-4468.208" />
    <text
       xml:space="preserve"
       style="font-size:40px;font-style:normal;font-variant:normal;font-weight:normal;font-stretch:normal;text-align:center;line-height:125%;letter-spacing:0px;word-spacing:0px;text-anchor:middle;fill:#666666;fill-opacity:1;stroke:none;font-family:SKULLX;-inkscape-font-specification:SKULLX"
       x="4325.124"
       y="-4629.2305"
       id="text3006"
       sodipodi:linespacing="125%"><tspan
         sodipodi:role="line"
         id="tspan3008"
         x="4325.124"
         y="-4629.2305">Teléfonos móbiles antigos</tspan><tspan
         sodipodi:role="line"
         x="4325.124"
         y="-4579.2305"
         id="tspan3010">Dispositivos android antigos</tspan></text>
    <text
       xml:space="preserve"
       style="font-size:117.4471817px;font-style:normal;font-variant:normal;font-weight:normal;font-stretch:normal;line-height:125%;letter-spacing:0px;word-spacing:0px;fill:#666666;fill-opacity:1;stroke:none;font-family:SKULLX;-inkscape-font-specification:SKULLX"
       x="4138.0469"
       y="-4758.2559"
       id="text3110"
       sodipodi:linespacing="125%"><tspan
         sodipodi:role="line"
         id="tspan3112"
         x="4138.0469"
         y="-4758.2559">240px</tspan></text>
    <rect
       y="-4464.0312"
       x="4851.9858"
       height="480"
       width="320"
       id="rect3002"
       style="fill:#666666;fill-opacity:1;fill-rule:nonzero;stroke:none" />
    <text
       sodipodi:linespacing="125%"
       id="text3012"
       y="-4627.7266"
       x="5011.7515"
       style="font-size:40px;font-style:normal;font-variant:normal;font-weight:normal;font-stretch:normal;text-align:center;line-height:125%;letter-spacing:0px;word-spacing:0px;text-anchor:middle;fill:#666666;fill-opacity:1;stroke:none;font-family:SKULLX;-inkscape-font-specification:SKULLX"
       xml:space="preserve"><tspan
         id="tspan3016"
         y="-4627.7266"
         x="5011.7515"
         sodipodi:role="line">iPhone 3/3G</tspan><tspan
         y="-4577.7266"
         x="5011.7515"
         sodipodi:role="line"
         id="tspan3020">iPhone 4/4S</tspan></text>
    <text
       sodipodi:linespacing="125%"
       id="text3114"
       y="-4758.2559"
       x="4825.2344"
       style="font-size:117.4471817px;font-style:normal;font-variant:normal;font-weight:normal;font-stretch:normal;line-height:125%;letter-spacing:0px;word-spacing:0px;fill:#666666;fill-opacity:1;stroke:none;font-family:SKULLX;-inkscape-font-specification:SKULLX"
       xml:space="preserve"><tspan
         y="-4758.2559"
         x="4825.2344"
         id="tspan3116"
         sodipodi:role="line">320px</tspan></text>
    <rect
       style="fill:#666666;fill-opacity:1;fill-rule:nonzero;stroke:none"
       id="rect3004"
       width="480"
       height="800"
       x="5525.7324"
       y="-4470.4116" />
    <text
       xml:space="preserve"
       style="font-size:40px;font-style:normal;font-variant:normal;font-weight:normal;font-stretch:normal;text-align:center;line-height:125%;letter-spacing:0px;word-spacing:0px;text-anchor:middle;fill:#666666;fill-opacity:1;stroke:none;font-family:SKULLX;-inkscape-font-specification:SKULLX"
       x="5765.5859"
       y="-4629.2305"
       id="text3022"
       sodipodi:linespacing="125%"><tspan
         id="tspan3026"
         sodipodi:role="line"
         x="5765.5859"
         y="-4629.2305">Maioría dos dispositivos Android</tspan><tspan
         sodipodi:role="line"
         x="5765.5859"
         y="-4579.2305"
         id="tspan3030">HTC, LG, Samsung, ...</tspan></text>
    <text
       xml:space="preserve"
       style="font-size:117.4471817px;font-style:normal;font-variant:normal;font-weight:normal;font-stretch:normal;line-height:125%;letter-spacing:0px;word-spacing:0px;fill:#666666;fill-opacity:1;stroke:none;font-family:SKULLX;-inkscape-font-specification:SKULLX"
       x="5580.5869"
       y="-4758.2559"
       id="text3118"
       sodipodi:linespacing="125%"><tspan
         sodipodi:role="line"
         id="tspan3120"
         x="5580.5869"
         y="-4758.2559">480px</tspan></text>
    <text
       sodipodi:linespacing="125%"
       id="text3032"
       y="-4604.2305"
       x="6610.6973"
       style="font-size:40px;font-style:normal;font-variant:normal;font-weight:normal;font-stretch:normal;text-align:center;line-height:125%;letter-spacing:0px;word-spacing:0px;text-anchor:middle;fill:#666666;fill-opacity:1;stroke:none;font-family:SKULLX;-inkscape-font-specification:SKULLX"
       xml:space="preserve"><tspan
         id="tspan3036"
         y="-4604.2305"
         x="6610.6973"
         sodipodi:role="line">Dispositivos android máis recentes</tspan><tspan
         y="-4554.2305"
         x="6610.6973"
         sodipodi:role="line"
         id="tspan3042" /></text>
    <rect
       y="-4470.4116"
       x="6341.6738"
       height="960"
       width="540"
       id="rect3038"
       style="fill:#666666;fill-opacity:1;fill-rule:nonzero;stroke:none" />
    <text
       sodipodi:linespacing="125%"
       id="text3122"
       y="-4758.2559"
       x="6424.8652"
       style="font-size:117.4471817px;font-style:normal;font-variant:normal;font-weight:normal;font-stretch:normal;line-height:125%;letter-spacing:0px;word-spacing:0px;fill:#666666;fill-opacity:1;stroke:none;font-family:SKULLX;-inkscape-font-specification:SKULLX"
       xml:space="preserve"><tspan
         y="-4758.2559"
         x="6424.8652"
         id="tspan3124"
         sodipodi:role="line">540px</tspan></text>
    <rect
       style="fill:#666666;fill-opacity:1;fill-rule:nonzero;stroke:none"
       id="rect3044"
       width="600"
       height="1024"
       x="7138.5039"
       y="-4494.8247" />
    <text
       xml:space="preserve"
       style="font-size:40px;font-style:normal;font-variant:normal;font-weight:normal;font-stretch:normal;text-align:center;line-height:125%;letter-spacing:0px;word-spacing:0px;text-anchor:middle;fill:#666666;fill-opacity:1;stroke:none;font-family:SKULLX;-inkscape-font-specification:SKULLX"
       x="7437.6055"
       y="-4601.1543"
       id="text3046"
       sodipodi:linespacing="125%"><tspan
         id="tspan3050"
         sodipodi:role="line"
         x="7437.6055"
         y="-4601.1543">Kindle Fire</tspan></text>
    <text
       xml:space="preserve"
       style="font-size:117.4471817px;font-style:normal;font-variant:normal;font-weight:normal;font-stretch:normal;line-height:125%;letter-spacing:0px;word-spacing:0px;fill:#666666;fill-opacity:1;stroke:none;font-family:SKULLX;-inkscape-font-specification:SKULLX"
       x="7252.1255"
       y="-4758.2559"
       id="text3126"
       sodipodi:linespacing="125%"><tspan
         sodipodi:role="line"
         id="tspan3128"
         x="7252.1255"
         y="-4758.2559">600px</tspan></text>
    <rect
       y="-4503.7549"
       x="7995.334"
       height="1024"
       width="768"
       id="rect3054"
       style="fill:#666666;fill-opacity:1;fill-rule:nonzero;stroke:none" />
    <text
       sodipodi:linespacing="125%"
       id="text3056"
       y="-4626.1543"
       x="8379.46"
       style="font-size:40px;font-style:normal;font-variant:normal;font-weight:normal;font-stretch:normal;text-align:center;line-height:125%;letter-spacing:0px;word-spacing:0px;text-anchor:middle;fill:#666666;fill-opacity:1;stroke:none;font-family:SKULLX;-inkscape-font-specification:SKULLX"
       xml:space="preserve"><tspan
         y="-4626.1543"
         x="8379.46"
         sodipodi:role="line"
         id="tspan3058">iPad</tspan><tspan
         y="-4576.1543"
         x="8379.46"
         sodipodi:role="line"
         id="tspan3060">iPad 2</tspan></text>
    <text
       sodipodi:linespacing="125%"
       id="text3130"
       y="-4758.2559"
       x="8192.2383"
       style="font-size:117.4471817px;font-style:normal;font-variant:normal;font-weight:normal;font-stretch:normal;line-height:125%;letter-spacing:0px;word-spacing:0px;fill:#666666;fill-opacity:1;stroke:none;font-family:SKULLX;-inkscape-font-specification:SKULLX"
       xml:space="preserve"><tspan
         y="-4758.2559"
         x="8192.2383"
         id="tspan3132"
         sodipodi:role="line">768px</tspan></text>
    <rect
       style="fill:#666666;fill-opacity:1;fill-rule:nonzero;stroke:none"
       id="rect3062"
       width="800"
       height="1280"
       x="9020.1641"
       y="-4509.7134" />
    <text
       xml:space="preserve"
       style="font-size:40px;font-style:normal;font-variant:normal;font-weight:normal;font-stretch:normal;text-align:center;line-height:125%;letter-spacing:0px;word-spacing:0px;text-anchor:middle;fill:#666666;fill-opacity:1;stroke:none;font-family:SKULLX;-inkscape-font-specification:SKULLX"
       x="9419.1875"
       y="-4626.1543"
       id="text3064"
       sodipodi:linespacing="125%"><tspan
         id="tspan3068"
         sodipodi:role="line"
         x="9419.1875"
         y="-4626.1543">Samsung Galaxy</tspan><tspan
         sodipodi:role="line"
         x="9419.1875"
         y="-4576.1543"
         id="tspan3072">Tablets Android</tspan></text>
    <text
       xml:space="preserve"
       style="font-size:117.4471817px;font-style:normal;font-variant:normal;font-weight:normal;font-stretch:normal;line-height:125%;letter-spacing:0px;word-spacing:0px;fill:#666666;fill-opacity:1;stroke:none;font-family:SKULLX;-inkscape-font-specification:SKULLX"
       x="9233.9004"
       y="-4758.2559"
       id="text3134"
       sodipodi:linespacing="125%"><tspan
         sodipodi:role="line"
         id="tspan3136"
         x="9233.9004"
         y="-4758.2559">800px</tspan></text>
    <text
       xml:space="preserve"
       style="font-size:328.85198975px;font-style:normal;font-variant:normal;font-weight:normal;font-stretch:normal;text-align:center;line-height:125%;letter-spacing:0px;word-spacing:0px;text-anchor:middle;fill:#666666;fill-opacity:1;stroke:none;font-family:SKULLX;-inkscape-font-specification:SKULLX"
       x="6946.4341"
       y="-5657.3247"
       id="text3138"
       sodipodi:linespacing="125%"><tspan
         sodipodi:role="line"
         id="tspan3140"
         x="6946.4341"
         y="-5657.3247">Móviles e tablets ata 2013</tspan><tspan
         sodipodi:role="line"
         x="6946.4341"
         y="-5246.2598"
         id="tspan3347">Ancho en formato retrato</tspan></text>
    <text
       sodipodi:linespacing="125%"
       id="text3277"
       y="-2210.0093"
       x="6938.0039"
       style="font-size:328.85198975px;font-style:normal;font-variant:normal;font-weight:normal;font-stretch:normal;text-align:center;line-height:125%;letter-spacing:0px;word-spacing:0px;text-anchor:middle;fill:#666666;fill-opacity:1;stroke:none;font-family:SKULLX;-inkscape-font-specification:SKULLX"
       xml:space="preserve"><tspan
         y="-2210.0093"
         x="6938.0039"
         id="tspan3279"
         sodipodi:role="line">PCs, portátiles, TVs, móviles recentes</tspan><tspan
         y="-1798.9443"
         x="6938.0039"
         sodipodi:role="line"
         id="tspan3519">Ancho en formato panorámico</tspan></text>
    <g
       id="g5811"
       transform="translate(-127.99987,458)"
       style="fill:#666666">
      <rect
         style="fill:#666666;fill-opacity:1;fill-rule:nonzero;stroke:none"
         id="rect3094"
         width="1280"
         height="720"
         x="5946.0327"
         y="-1498.2122" />
      <text
         xml:space="preserve"
         style="font-size:40px;font-style:normal;font-variant:normal;font-weight:normal;font-stretch:normal;text-align:center;line-height:125%;letter-spacing:0px;word-spacing:0px;text-anchor:middle;fill:#666666;fill-opacity:1;stroke:none;font-family:SKULLX;-inkscape-font-specification:SKULLX"
         x="6585.73"
         y="-1700.5487"
         id="text3096"
         sodipodi:linespacing="125%"><tspan
           sodipodi:role="line"
           x="6585.73"
           y="-1700.5487"
           id="tspan3098">Pantallas de escritorio recentes</tspan><tspan
           id="tspan3100"
           sodipodi:role="line"
           x="6585.73"
           y="-1650.5487">(1280x720) 16:9</tspan></text>
      <text
         sodipodi:linespacing="125%"
         id="text3399"
         y="-1892.2761"
         x="6171.5269"
         style="font-size:117.4471817px;font-style:normal;font-variant:normal;font-weight:normal;font-stretch:normal;line-height:125%;letter-spacing:0px;word-spacing:0px;fill:#666666;fill-opacity:1;stroke:none;font-family:SKULLX;-inkscape-font-specification:SKULLX"
         xml:space="preserve"><tspan
           y="-1892.2761"
           x="6171.5269"
           id="tspan3401"
           sodipodi:role="line">1280px - 16:9</tspan></text>
    </g>
    <rect
       style="fill:#666666;fill-opacity:1;fill-rule:nonzero;stroke:none"
       id="rect3084"
       width="1024"
       height="768"
       x="4450.9341"
       y="-1040.2122" />
    <text
       xml:space="preserve"
       style="font-size:40px;font-style:normal;font-variant:normal;font-weight:normal;font-stretch:normal;text-align:center;line-height:125%;letter-spacing:0px;word-spacing:0px;text-anchor:middle;fill:#666666;fill-opacity:1;stroke:none;font-family:SKULLX;-inkscape-font-specification:SKULLX"
       x="4961.9575"
       y="-1242.5487"
       id="text3088"
       sodipodi:linespacing="125%"><tspan
         sodipodi:role="line"
         x="4961.9575"
         y="-1242.5487"
         id="tspan3090">Pantallas de escritorio recentes</tspan><tspan
         id="tspan3092"
         sodipodi:role="line"
         x="4961.9575"
         y="-1192.5487">(1024x768) 4:3</tspan></text>
    <text
       sodipodi:linespacing="125%"
       id="text3403"
       y="-1434.2761"
       x="4586.3921"
       style="font-size:117.4471817px;font-style:normal;font-variant:normal;font-weight:normal;font-stretch:normal;line-height:125%;letter-spacing:0px;word-spacing:0px;fill:#666666;fill-opacity:1;stroke:none;font-family:SKULLX;-inkscape-font-specification:SKULLX"
       xml:space="preserve"><tspan
         y="-1434.2761"
         x="4586.3921"
         id="tspan3405"
         sodipodi:role="line">1024px - 4:3</tspan></text>
    <g
       id="g5819"
       transform="translate(-63.999383,458)"
       style="fill:#666666">
      <rect
         y="-1498.2122"
         x="7505.1309"
         height="800"
         width="1280"
         id="rect3102"
         style="fill:#666666;fill-opacity:1;fill-rule:nonzero;stroke:none" />
      <text
         sodipodi:linespacing="125%"
         id="text3104"
         y="-1700.5487"
         x="8144.75"
         style="font-size:40px;font-style:normal;font-variant:normal;font-weight:normal;font-stretch:normal;text-align:center;line-height:125%;letter-spacing:0px;word-spacing:0px;text-anchor:middle;fill:#666666;fill-opacity:1;stroke:none;font-family:SKULLX;-inkscape-font-specification:SKULLX"
         xml:space="preserve"><tspan
           id="tspan3106"
           y="-1700.5487"
           x="8144.75"
           sodipodi:role="line">Pantallas de escritorio recentes</tspan><tspan
           y="-1650.5487"
           x="8144.75"
           sodipodi:role="line"
           id="tspan3108">(1280x800) 16:10</tspan></text>
      <text
         xml:space="preserve"
         style="font-size:117.4471817px;font-style:normal;font-variant:normal;font-weight:normal;font-stretch:normal;line-height:125%;letter-spacing:0px;word-spacing:0px;fill:#666666;fill-opacity:1;stroke:none;font-family:SKULLX;-inkscape-font-specification:SKULLX"
         x="7693.0049"
         y="-1892.2761"
         id="text3407"
         sodipodi:linespacing="125%"><tspan
           sodipodi:role="line"
           id="tspan3409"
           x="7693.0049"
           y="-1892.2761">1280px - 16:10</tspan></text>
    </g>
    <g
       id="g5827"
       transform="translate(6.1699219e-4,458)"
       style="fill:#666666">
      <rect
         style="fill:#666666;fill-opacity:1;fill-rule:nonzero;stroke:none"
         id="rect3411"
         width="1680"
         height="1050"
         x="9064.2295"
         y="-1498.2122" />
      <text
         xml:space="preserve"
         style="font-size:40px;font-style:normal;font-variant:normal;font-weight:normal;font-stretch:normal;text-align:center;line-height:125%;letter-spacing:0px;word-spacing:0px;text-anchor:middle;fill:#666666;fill-opacity:1;stroke:none;font-family:SKULLX;-inkscape-font-specification:SKULLX"
         x="9903.8486"
         y="-1700.9003"
         id="text3413"
         sodipodi:linespacing="125%"><tspan
           sodipodi:role="line"
           x="9903.8486"
           y="-1700.9003"
           id="tspan3415">Pantalla 23''</tspan><tspan
           id="tspan3417"
           sodipodi:role="line"
           x="9903.8486"
           y="-1650.9003">(1280x800) 16:10</tspan></text>
      <text
         sodipodi:linespacing="125%"
         id="text3419"
         y="-1879.2585"
         x="9452.1035"
         style="font-size:117.4471817px;font-style:normal;font-variant:normal;font-weight:normal;font-stretch:normal;line-height:125%;letter-spacing:0px;word-spacing:0px;fill:#666666;fill-opacity:1;stroke:none;font-family:SKULLX;-inkscape-font-specification:SKULLX"
         xml:space="preserve"><tspan
           y="-1879.2585"
           x="9452.1035"
           id="tspan3421"
           sodipodi:role="line">1680px - 16:10</tspan></text>
    </g>
    <rect
       y="4851.9858"
       x="3595.9055"
       height="320"
       width="240"
       id="rect3999"
       style="fill:#666666;fill-opacity:1;fill-rule:nonzero;stroke:none"
       transform="matrix(0,-1,1,0,0,0)" />
    <rect
       style="fill:#666666;fill-opacity:1;fill-rule:nonzero;stroke:none"
       id="rect4005"
       width="320"
       height="480"
       x="3165.8142"
       y="5525.7324"
       transform="matrix(0,-1,1,0,0,0)" />
    <rect
       y="9020.1641"
       x="2593.7358"
       height="800"
       width="480"
       id="rect4007"
       style="fill:#666666;fill-opacity:1;fill-rule:nonzero;stroke:none"
       transform="matrix(0,-1,1,0,0,0)" />
    <rect
       y="-1040.2122"
       x="3147.8357"
       height="720"
       width="960"
       id="rect3074"
       style="fill:#666666;fill-opacity:1;fill-rule:nonzero;stroke:none" />
    <text
       sodipodi:linespacing="125%"
       id="text3076"
       y="-1219.0721"
       x="3626.8591"
       style="font-size:40px;font-style:normal;font-variant:normal;font-weight:normal;font-stretch:normal;text-align:center;line-height:125%;letter-spacing:0px;word-spacing:0px;text-anchor:middle;fill:#666666;fill-opacity:1;stroke:none;font-family:SKULLX;-inkscape-font-specification:SKULLX"
       xml:space="preserve"><tspan
         y="-1219.0721"
         x="3626.8591"
         sodipodi:role="line"
         id="tspan3086">A maioría dos escritorios</tspan></text>
    <text
       sodipodi:linespacing="125%"
       id="text3335"
       y="-1434.2761"
       x="3291.4368"
       style="font-size:117.4471817px;font-style:normal;font-variant:normal;font-weight:normal;font-stretch:normal;line-height:125%;letter-spacing:0px;word-spacing:0px;fill:#666666;fill-opacity:1;stroke:none;font-family:SKULLX;-inkscape-font-specification:SKULLX"
       xml:space="preserve"><tspan
         y="-1434.2761"
         x="3291.4368"
         id="tspan3337"
         sodipodi:role="line">960px - 4:3</tspan></text>
    <rect
       style="fill:#666666;fill-opacity:1;fill-rule:nonzero;stroke:none"
       id="rect4021"
       width="540"
       height="960"
       x="-499.28296"
       y="3147.8357"
       transform="matrix(0,-1,1,0,0,0)" />
    <path
       sodipodi:nodetypes="czsc"
       style="fill:#666666;fill-rule:evenodd;stroke:none;marker-start:none;marker-end:none"
       d="m 3056.994,239.99507 -3.0654,-9.51856 c -13.5582,4.36251 -27.7697,6.68358 -41.8394,6.10474 -6.6517,-0.26589 -13.2809,-1.15923 -19.7659,-2.66465 -6.5263,-1.51349 -12.9219,-3.65265 -19.097,-6.3249 -13.1808,-5.68909 -25.3293,-13.85817 -36.3369,-23.37935 -12.6187,-10.92189 -23.7321,-23.64371 -33.7525,-37.21623 -11.6456,-15.78406 -21.7648,-32.73603 -30.8735,-50.24921 -10e-5,-1.1e-4 -10e-5,-2.3e-4 -2e-4,-3.5e-4 -10.4775,-20.151559 -19.5751,-41.048495 -27.7462,-62.326634 -19.5132,-50.8096303 -33.8083,-103.597153 -45.4483,-156.940186 -13.9194,-63.81383 -23.8328,-128.5015 -31.2498,-193.47276 -8.4246,-73.80998 -13.5456,-148.00024 -16.2327,-222.28038 -2.9331,-81.09196 -2.9319,-162.2928 -0.4513,-243.41957 0,-1.3e-4 0,-2.6e-4 0,-4e-4 2.6231,-85.77656 8.0313,-171.47003 16.0775,-256.91663 8.2795,-87.9231 19.3553,-175.5851 33.346,-262.7813 14.052,-87.5772 31.0412,-174.6865 51.3497,-261.0188 39.1353,-166.3436 90.1688,-330.2103 159.6221,-486.2459 32.1442,-72.2177 68.309,-142.6835 109.7032,-209.9772 38.5791,-62.7149 81.7121,-122.7072 130.5573,-177.7264 45.5538,-51.3097 96.141,-98.2901 152.0873,-137.9016 10e-5,-1e-4 2e-4,-2e-4 3e-4,-2e-4 26.9314,-19.0702 55.0857,-36.4176 84.3355,-51.669 29.0068,-15.125 59.0931,-28.186 89.9942,-38.9049 122.8776,-42.6259 249.3404,-74.7442 377.3761,-97.8367 126.0085,-22.7269 253.5405,-36.7551 381.4129,-44.0215 125.5755,-7.1356 251.4939,-7.7606 377.2385,-3.761 1e-4,0 2e-4,0 4e-4,0 121.7969,3.8742 243.4424,12.1001 364.843,22.9289 10e-5,0 2e-4,0 2e-4,0 114.907,10.2496 229.6016,22.863 344.2314,36.0363 105.0997,12.0782 210.1551,24.6913 315.4103,35.5536 92.5809,9.5548 185.3582,17.8922 278.3945,21.4741 40.8926,1.5744 81.8385,2.1943 122.7619,1.2046 36.8926,-0.8919 73.7824,-3.0828 110.4469,-7.4232 1e-4,0 3e-4,0 4e-4,0 24.9972,-2.9588 49.8631,-7.3049 74.2365,-13.6706 2e-4,0 3e-4,-10e-5 4e-4,-10e-5 22.0202,-5.751 43.6387,-13.1752 64.3178,-22.7216 19.3787,-8.9464 37.9064,-19.7795 55.0287,-32.5364 16.9538,-12.6325 32.4964,-27.1377 46.3566,-43.0941 14.5689,-16.7733 27.2821,-35.1102 38.3143,-54.3735 1e-4,-10e-5 1e-4,-10e-5 1e-4,-2e-4 12.149,-21.2134 22.2907,-43.5303 30.9277,-66.3774 9.7623,-25.8233 17.6254,-52.3308 24.2094,-79.1228 7.5126,-30.5694 13.366,-61.5245 18.1586,-92.6231 11.6713,-75.735 17.3318,-152.2665 20.8074,-228.7857 0,-10e-5 0,-3e-4 0,-4e-4 4.4168,-97.2281 5.071,-194.584 4.4994,-291.8971 -0.707,-120.3762 -3.44,-240.7281 -6.5812,-361.0604 -3.7965,-145.4313 -8.2753,-290.8428 -12.4403,-436.2631 3.9811,145.4255 8.2759,290.8429 11.8884,436.2772 2.989,120.3349 5.5696,240.6859 6.1242,361.0516 0.4483,97.3053 -0.3287,194.6415 -4.8671,291.8284 0,1e-4 0,3e-4 0,4e-4 -3.5724,76.4886 -9.3248,152.9609 -21.0799,228.5939 -4.8266,31.055 -10.7094,61.9533 -18.2456,92.4505 -6.6052,26.7285 -14.4801,53.1559 -24.2433,78.8802 -8.6379,22.7587 -18.7643,44.9705 -30.8797,66.0601 -11.0009,19.1495 -23.6614,37.3634 -38.1537,54.0034 -13.7854,15.8294 -29.2357,30.2122 -46.0783,42.7279 -17.0093,12.6408 -35.4204,23.3729 -54.6791,32.2355 -20.5528,9.4586 -42.0542,16.8101 -63.9685,22.5055 0,10e-5 -10e-5,10e-5 -2e-4,10e-5 -24.2576,6.3043 -49.0221,10.5987 -73.9346,13.5169 -10e-5,1e-4 -3e-4,1e-4 -4e-4,1e-4 -36.5764,4.2839 -73.3911,6.4226 -110.225,7.2674 -40.8577,0.9368 -81.7474,0.2656 -122.596,-1.3584 -92.9395,-3.6948 -185.6423,-12.145 -278.1843,-21.8129 -105.2076,-10.9918 -210.233,-23.7362 -315.3289,-35.9486 -114.6242,-13.3198 -229.3328,-26.0814 -344.2799,-36.4815 -121.4424,-10.9878 -243.1549,-19.3725 -365.0507,-23.4048 -1e-4,0 -3e-4,0 -4e-4,0 -125.8463,-4.1632 -251.8999,-3.6962 -377.6513,3.2887 -128.0519,7.1125 -255.805,21.0026 -382.0834,43.6114 -128.3113,22.9727 -255.0929,55.0025 -378.338,97.5788 -31.1924,10.7765 -61.5594,23.9128 -90.8355,39.1318 -29.5205,15.3464 -57.9286,32.7992 -85.0954,51.9857 0,0 -1e-4,0 -1e-4,1e-4 -56.4299,39.8575 -107.4301,87.0883 -153.3145,138.6513 -1e-4,10e-5 -1e-4,10e-5 -2e-4,2e-4 -49.1989,55.2855 -92.6337,115.5254 -131.4542,178.4652 -41.6555,67.5332 -78.05,138.2181 -110.3869,210.6301 -69.8614,156.4444 -121.2503,320.6788 -160.6682,487.3244 -20.4619,86.4952 -37.5976,173.7649 -51.7881,261.4987 -14.1289,87.3521 -25.3381,175.1739 -33.7453,263.2604 -8.1704,85.60495 -13.6984,171.46825 -16.436,257.42659 0,1.3e-4 0,2.6e-4 0,3.9e-4 -2.5894,81.29792 -2.6931,162.69216 0.1443,244.00151 2.5985,74.47727 7.6426,148.9054 16.0031,222.99729 7.3575,65.21436 17.2393,130.22182 31.1575,194.43786 11.627,53.666288 25.9915,106.9306908 45.6618,158.380559 8.2413,21.554494 17.4607,42.793601 28.1131,63.354861 0,6e-5 0,1.2e-4 0,1.8e-4 9.2543,17.86854 19.6186,35.26237 31.611,51.57677 10.3106,14.03526 21.8965,27.30143 35.1734,38.85087 11.5921,10.09027 24.5757,18.80837 38.8465,25.02599 6.6923,2.90879 13.6501,5.24309 20.784,6.90997 7.0908,1.65526 14.3351,2.64095 21.6108,2.94122 15.4122,0.61962 30.7812,-1.83952 45.3087,-6.52199 z"
       id="path4025"
       inkscape:path-effect="#path-effect4027"
       inkscape:original-d="M 3055.4613,235.23579 C 2575.2895,389.8744 2582.109,-2303.0873 3577.2561,-2647.5851 c 995.1471,-344.4978 2119.2038,30.9095 2672.927,-34.2925 422.7998,-49.7855 393.5198,-452.3049 357.9768,-1721.3291"
       inkscape:connector-curvature="0" />
    <rect
       y="-5474.9341"
       x="-40.717041"
       height="1024"
       width="600"
       id="rect5851"
       style="fill:#666666;fill-opacity:1;fill-rule:nonzero;stroke:none"
       transform="matrix(0,1,-1,0,0,0)" />
    <rect
       style="fill:#666666;fill-opacity:1;fill-rule:nonzero;stroke:none"
       id="rect5853"
       width="768"
       height="1024"
       x="807.03992"
       y="-5474.9341"
       transform="matrix(0,1,-1,0,0,0)" />
    <path
       sodipodi:nodetypes="czsc"
       style="fill:#666666;fill-rule:evenodd;stroke:none;marker-start:none;marker-end:none"
       d="m 4358.5054,438.29932 -6.0366,-7.97242 c -59.9007,45.39956 -121.3101,88.80655 -184.536,129.38261 -56.0792,35.98902 -113.5832,69.75802 -172.7304,100.35306 -52.3995,27.10412 -106.0866,51.72389 -161.1302,72.81184 -2e-4,7e-5 -4e-4,1.3e-4 -5e-4,1.9e-4 -48.8912,18.73022 -98.8534,34.67792 -149.7377,46.76986 -10e-5,2e-5 -2e-4,4e-5 -2e-4,6e-5 -45.5845,10.83206 -91.9121,18.56756 -138.5671,22.24088 -42.4922,3.34565 -85.2583,3.31287 -127.6419,-0.7687 -1e-4,-2e-5 -3e-4,-3e-5 -5e-4,-5e-5 -39.5854,-3.81124 -78.836,-11.16391 -116.9988,-22.27039 -36.775,-10.70112 -72.5379,-24.88987 -106.6581,-42.2993 -33.9406,-17.3164 -66.2587,-37.81384 -96.6088,-60.89609 -30.9959,-23.57267 -59.9465,-49.83568 -86.813,-78.07944 -57.2425,-60.16631 -104.9451,-129.11358 -145.0859,-201.99678 -10e-5,-7e-5 -10e-5,-1.5e-4 -2e-4,-2.3e-4 -21.6235,-39.27004 -41.0667,-79.74532 -58.6658,-121.01078 -18.4912,-43.35779 -34.9431,-87.5899 -49.6787,-132.3904 -10e-5,-8e-5 -10e-5,-1.6e-4 -10e-5,-2.5e-4 -31.4695,-95.671773 -55.1717,-193.847589 -73.2254,-293.0021 -19.3039,-106.02843 -32.107,-213.22073 -39.8092,-320.75737 -8.0213,-111.9991 -10.4832,-224.3901 -8.1441,-336.67337 2.3715,-113.82364 9.6866,-227.54525 21.7469,-340.76115 10e-5,-2e-4 10e-5,-3e-4 10e-5,-5e-4 11.8939,-111.6505 28.3984,-222.8171 49.8516,-333.0272 20.5558,-105.5982 45.6352,-210.3334 76.1605,-313.4752 28.3551,-95.806 61.3699,-190.2735 100.661,-282.1005 1e-4,-10e-5 1e-4,-3e-4 2e-4,-4e-4 35.3044,-82.5052 75.6203,-162.966 123.3287,-238.9002 21.554,-34.3072 44.6326,-67.6591 69.5782,-99.5543 1e-4,-1e-4 1e-4,-2e-4 2e-4,-2e-4 23.1362,-29.5812 47.8761,-57.9152 74.5314,-84.3252 25.8623,-25.6263 53.4443,-49.5163 82.3456,-71.6845 29.6307,-22.7277 60.6469,-43.6486 92.6667,-62.8985 67.5351,-40.6035 139.4342,-73.7669 213.3293,-101.3237 79.9766,-29.8234 162.3312,-53.1169 245.6609,-71.8308 89.735,-20.1517 180.6378,-34.9823 271.964,-46.1266 198.4432,-24.2161 398.7083,-31.4216 598.696,-30.4107 10e-5,0 2e-4,0 3e-4,0 210.7109,1.0664 421.3052,11.6164 631.5301,26.4851 2e-4,0 3e-4,10e-5 5e-4,10e-5 205.6255,14.5436 410.9299,33.4294 616.193,52.6539 95.7538,8.9681 191.5043,18.0086 287.3039,26.5326 88.4144,7.8669 176.8732,15.3125 265.4241,21.5447 79.0958,5.5668 158.2734,10.2032 237.5345,12.7123 67.8524,2.1482 135.7952,2.821 203.641,0.033 29.1225,-1.1965 58.2271,-3.0517 87.2377,-5.9416 25.6234,-2.5523 51.1833,-5.9034 76.5201,-10.5583 21.9436,-4.0311 43.7392,-9.0311 65.0589,-15.6631 18.1458,-5.6438 35.98,-12.472 52.8554,-21.2649 1e-4,-10e-5 2e-4,-10e-5 2e-4,-2e-4 22.8272,-11.8961 44.59,-25.8358 64.909,-41.637 1e-4,-1e-4 2e-4,-2e-4 4e-4,-3e-4 20.1053,-15.6354 38.788,-33.0809 55.8916,-51.9455 35.6316,-39.3029 64.2725,-84.6045 87.2005,-132.4079 25.4859,-53.1351 44.1572,-109.34 58.577,-166.4519 16.2411,-64.3226 27.1258,-129.9041 34.9387,-195.7672 18.1156,-152.7166 20.4592,-306.8684 18.8098,-460.6193 -1.8645,-173.839 -9.6316,-347.547 -16.2847,-521.263 6.4891,173.7222 14.0922,347.4386 15.7925,521.2681 1.5034,153.7438 -0.9849,307.8685 -19.2387,460.5045 -7.8723,65.827 -18.8114,131.3561 -35.0989,195.6033 -14.4621,57.0447 -33.1602,113.1582 -58.6514,166.1704 -22.9325,47.6899 -51.545,92.8569 -87.1053,132.0006 -17.068,18.7893 -35.7053,36.1596 -55.7539,51.7201 -1e-4,1e-4 -3e-4,2e-4 -4e-4,3e-4 -20.2613,15.7259 -41.9594,29.595 -64.7142,41.4262 -16.7751,8.7234 -34.5271,15.4981 -52.6107,21.1064 -2e-4,10e-5 -3e-4,10e-5 -5e-4,2e-4 -21.2466,6.5883 -42.9821,11.5517 -64.8806,15.5543 -25.284,4.621 -50.7998,7.9413 -76.3891,10.4663 -28.9715,2.8587 -58.0426,4.6839 -87.1384,5.8521 -67.7856,2.7216 -135.6797,1.9844 -203.5005,-0.2262 -79.2222,-2.5824 -158.367,-7.2922 -237.4398,-12.9321 -88.5244,-6.3142 -176.9611,-13.8421 -265.36,-21.7917 -95.7825,-8.6136 -191.5201,-17.744 -287.2668,-26.8027 -205.248,-19.4186 -410.556,-38.5 -616.2151,-53.2414 -1e-4,0 -2e-4,-1e-4 -2e-4,-1e-4 -210.2569,-15.0712 -420.9188,-25.8233 -631.7478,-27.0904 -200.0955,-1.2038 -400.5422,5.8218 -599.2655,29.8774 -2e-4,0 -4e-4,0 -6e-4,10e-5 -91.4577,11.0713 -182.526,25.8419 -272.465,45.9487 -83.5191,18.6708 -166.1084,41.9491 -246.3703,71.7894 -74.1607,27.5707 -146.3752,60.8021 -214.2804,101.5343 -32.1955,19.3132 -63.397,40.3171 -93.2228,63.1487 -29.0921,22.2699 -56.8688,46.2837 -82.9299,72.0571 -26.8662,26.5716 -51.7878,55.056 -75.0746,84.7752 -1e-4,1e-4 -2e-4,2e-4 -3e-4,4e-4 -25.1086,32.0435 -48.3299,65.5316 -70.005,99.9618 -47.9707,76.2023 -88.5049,156.8949 -123.9765,239.5889 -39.4822,92.0392 -72.6673,186.6988 -101.168,282.6723 -30.6841,103.3232 -55.9112,208.2324 -76.6015,313.9944 -21.5944,110.382 -38.2328,221.7232 -50.2519,333.5501 0,10e-5 0,2e-4 0,3e-4 -12.1878,113.3949 -19.6233,227.30845 -22.1069,341.33756 -2.4503,112.48558 -0.089,225.10413 7.8431,337.35815 7.6156,107.78049 20.3515,215.25872 39.6102,321.61913 18.0087,99.463647 41.7069,198.013936 73.2177,294.13153 10e-5,1.7e-4 10e-5,3.4e-4 2e-4,5.1e-4 14.7568,45.01114 31.2484,89.47561 49.7986,133.08839 17.6548,41.5084 37.1805,82.25063 58.9144,121.81261 1e-4,1.6e-4 1e-4,3.1e-4 2e-4,4.7e-4 40.3315,73.43076 88.3934,143.00621 146.1777,203.88693 27.1288,28.57761 56.3972,55.17571 87.7686,79.08462 30.7203,23.41211 63.4586,44.21714 97.8709,61.81789 34.597,17.69379 70.8633,32.12209 108.1689,43.01614 38.7133,11.30359 78.5059,18.79951 118.6242,22.69801 2e-4,2e-5 4e-4,4e-5 5e-4,5e-5 42.9513,4.17279 86.2458,4.25133 129.2252,0.9041 47.1866,-3.675 93.9911,-11.4399 139.9948,-22.33022 51.3506,-12.1556 101.7232,-28.17763 150.9658,-46.99327 2e-4,-6e-5 3e-4,-1.3e-4 5e-4,-1.9e-4 55.4389,-21.18262 109.4723,-45.89606 162.1662,-73.09267 59.4799,-30.69844 117.277,-64.56359 173.6067,-100.64088 63.5093,-40.67507 125.171,-84.17122 185.2905,-129.64924 z"
       id="path5855"
       inkscape:path-effect="#path-effect5849"
       inkscape:original-d="M 4355.4871,434.31311 C 2319.6419,1975.8258 2326.5435,-1686.8332 3150.3701,-2502.3492 c 823.8266,-815.516 3534.9659,-39.0587 4029.5231,-296.4956 370.7293,-192.9795 331.5903,-850.7305 304.4063,-1569.3928"
       inkscape:connector-curvature="0" />
    <rect
       y="-8721.1318"
       x="-40.717041"
       height="1280"
       width="800"
       id="rect5865"
       style="fill:#666666;fill-opacity:1;fill-rule:nonzero;stroke:none"
       transform="matrix(0,1,-1,0,0,0)" />
  </g>
  <g
     style="opacity:0.15;display:none"
     transform="translate(-2441.424,6020.3421)"
     id="g5871"
     inkscape:groupmode="layer"
     inkscape:label="Pantallas"
     sodipodi:insensitive="true">
    <rect
       y="-4468.208"
       x="4204.626"
       height="320"
       width="240"
       id="rect5883"
       style="fill:#0000ff;fill-opacity:1;fill-rule:nonzero;stroke:none" />
    <rect
       style="fill:#0000ff;fill-opacity:1;fill-rule:nonzero;stroke:none"
       id="rect5895"
       width="320"
       height="480"
       x="4851.9858"
       y="-4464.0312" />
    <rect
       y="-4470.4116"
       x="5525.7324"
       height="800"
       width="480"
       id="rect5907"
       style="fill:#0000ff;fill-opacity:1;fill-rule:nonzero;stroke:none" />
    <rect
       style="fill:#0000ff;fill-opacity:1;fill-rule:nonzero;stroke:none"
       id="rect5925"
       width="540"
       height="960"
       x="6341.6738"
       y="-4470.4116" />
    <rect
       y="-4494.8247"
       x="7138.5039"
       height="1024"
       width="600"
       id="rect5931"
       style="fill:#0000ff;fill-opacity:1;fill-rule:nonzero;stroke:none" />
    <rect
       style="fill:#0000ff;fill-opacity:1;fill-rule:nonzero;stroke:none"
       id="rect5941"
       width="768"
       height="1024"
       x="7995.334"
       y="-4503.7549" />
    <rect
       y="-4509.7134"
       x="9020.1641"
       height="1280"
       width="800"
       id="rect5953"
       style="fill:#0000ff;fill-opacity:1;fill-rule:nonzero;stroke:none" />
    <rect
       style="fill:#0000ff;fill-opacity:1;fill-rule:nonzero;stroke:none"
       id="rect5979"
       width="1280"
       height="720"
       x="5818.0327"
       y="-1040.2122" />
    <rect
       y="-1040.2122"
       x="4450.9341"
       height="768"
       width="1024"
       id="rect5991"
       style="fill:#0000ff;fill-opacity:1;fill-rule:nonzero;stroke:none" />
    <rect
       y="-1040.2122"
       x="7441.1313"
       height="800"
       width="1280"
       id="rect6005"
       style="fill:#0000ff;fill-opacity:1;fill-rule:nonzero;stroke:none" />
    <rect
       style="fill:#0000ff;fill-opacity:1;fill-rule:nonzero;stroke:none"
       id="rect6019"
       width="1680"
       height="1050"
       x="9064.2305"
       y="-1040.2122" />
    <rect
       style="fill:#0000ff;fill-opacity:1;fill-rule:nonzero;stroke:none"
       id="rect6037"
       width="960"
       height="720"
       x="3147.8357"
       y="-1040.2122" />
  </g>
  <g
     inkscape:groupmode="layer"
     id="layer2"
     inkscape:label="Escritorio 960">
    <rect
       y="4980.1299"
       x="706.41168"
       height="110"
       width="960"
       id="rect3975"
       style="fill:url(#linearGradient3991);fill-opacity:1;fill-rule:nonzero;stroke:none" />
    <rect
       style="fill:#57c6c0;fill-opacity:1;fill-rule:nonzero;stroke:none;filter:url(#filter3997);opacity:1"
       id="rect3152"
       width="960.00006"
       height="109.49187"
       x="706.41168"
       y="4980.1299" />
    <image
       y="4613.8052"
       x="1071.1614"
       id="image3130"
       xlink:href="file:///home/lacon/desenhos/Web%20Expomar/logo-expomar-letras.png"
       height="70.414558"
       width="532.38116" />
    <path
       style="fill:url(#linearGradient4013);fill-opacity:1"
       d="m 970.09426,5057.473 c -2.4466,-0.1333 -4.2012,-0.4344 -5.9743,-1.0254 -1.8204,-0.6066 -2.8272,-1.2169 -4.1106,-2.4915 -0.8825,-0.8764 -1.2485,-1.3793 -1.7212,-2.3652 -1.2587,-2.6249 -1.3968,-3.9335 -1.3217,-12.5215 0.058,-6.6624 0.061,-6.7111 0.4406,-8.1199 1.3086,-4.855 4.1803,-7.1369 10.2047,-8.109 1.5988,-0.258 9.0076,-0.258 10.6064,0 6.1543,0.9931 9.1118,3.4356 10.3341,8.5344 0.1949,0.8127 0.2498,2.2028 0.3039,7.6945 0.084,8.558 -0.055,9.8972 -1.2968,12.4828 -0.6699,1.3949 -1.9034,2.8105 -3.2002,3.673 -1.0958,0.7289 -3.114,1.4791 -4.9208,1.8294 -1.2197,0.2364 -5.9964,0.6144 -6.9653,0.5511 -0.162,-0.01 -1.2325,-0.07 -2.3788,-0.1327 z m 4.608,-8.3796 c 1.829,-0.1514 2.5511,-0.39 3.2622,-1.0783 0.905,-0.8759 0.9683,-1.3301 1.0291,-7.3824 0.058,-5.8044 -0.028,-6.9488 -0.6012,-7.9707 -0.3725,-0.6641 -1.0531,-1.1714 -1.9273,-1.4364 -0.3943,-0.1196 -1.6264,-0.1834 -3.5501,-0.1838 -2.4899,0 -3.0675,0.042 -3.7299,0.2723 -1.1226,0.3911 -1.6926,1.0231 -2.0314,2.2523 -0.2504,0.9084 -0.2784,1.5733 -0.2784,6.6079 0,4.9474 0.03,5.6961 0.2617,6.4442 0.5111,1.6528 1.4464,2.2727 3.7157,2.4625 1.924,0.1609 2.0495,0.1613 3.8496,0.012 z m -125.16004,-8.9936 0,-17.2362 12.48459,0.037 12.48459,0.038 0.0393,3.7731 c 0.0316,3.0353 1.4e-4,3.8057 -0.16077,3.9392 -0.14123,0.1173 -2.40453,0.1773 -7.69943,0.2043 l -7.4994,0.038 0,2.7252 0,2.7253 7.14457,0.074 7.14458,0.074 0.0396,3.3513 0.0396,3.3513 -7.03686,0 c -3.87027,0 -7.12116,0.056 -7.22419,0.1212 -0.1436,0.091 -0.178,0.8044 -0.14731,3.0544 l 0.04,2.9355 7.80747,0.074 7.80747,0.074 0.0394,3.7382 c 0.0277,2.6343 -0.0102,3.798 -0.12852,3.9406 -0.13997,0.1686 -2.24881,0.2023 -12.67129,0.2023 l -12.50338,0 0,-17.2362 z m 31.31509,17.1076 c -0.0437,-0.071 2.21048,-4.0556 5.00934,-8.8551 2.79885,-4.7995 5.05844,-8.8056 5.02129,-8.9024 -0.037,-0.097 -2.13916,-3.7485 -4.67117,-8.1149 -2.53201,-4.3664 -4.6351,-8.0592 -4.67354,-8.2061 -0.0667,-0.2551 0.18225,-0.2655 5.48353,-0.2286 l 5.55343,0.038 2.8587,5.8187 c 1.5723,3.2004 2.9373,5.8188 3.03335,5.8188 0.0961,0 1.4726,-2.6184 3.05895,-5.8188 l 2.8843,-5.8187 5.41365,-0.038 c 4.4772,-0.032 5.4137,-0.01 5.4137,0.1611 0,0.1098 -2.03345,3.7731 -4.51875,8.1407 -2.4853,4.3675 -4.54625,8.081 -4.5799,8.2521 -0.0415,0.211 1.5337,3.0699 4.8976,8.889 2.7273,4.7178 4.9229,8.6713 4.87915,8.7853 -0.0665,0.1731 -0.9525,0.2071 -5.3506,0.2052 -2.89905,0 -5.35675,-0.057 -5.46155,-0.1231 -0.1048,-0.066 -1.60575,-2.8662 -3.3355,-6.2216 -1.7297,-3.3554 -3.22165,-6.1008 -3.31545,-6.1008 -0.0938,0 -1.5542,2.705 -3.24535,6.011 -1.6911,3.306 -3.15425,6.1068 -3.25145,6.2239 -0.14825,0.1786 -1.05025,0.2129 -5.60047,0.2129 -2.98307,0 -5.45954,-0.058 -5.50326,-0.1286 z m 40.88633,-0.069 c -0.1237,-0.1491 -0.15785,-4.6589 -0.13025,-17.2006 l 0.0375,-16.9986 9.72257,-0.038 c 10.5432,-0.042 11.1422,-0.01 13.3941,0.7765 1.4336,0.4986 2.9321,1.5588 3.7384,2.6449 0.8521,1.1478 1.2744,2.0745 1.7591,3.8604 0.3822,1.4083 0.3929,1.5619 0.3955,5.646 0,3.7789 -0.029,4.3455 -0.3199,5.6715 -0.4499,2.0547 -1.2555,3.6355 -2.3864,4.6825 -2.1527,1.9931 -4.4888,2.4617 -12.272,2.4619 -2.4104,1e-4 -4.3965,0.016 -4.4136,0.037 -0.017,0.021 -0.067,1.9593 -0.1105,4.3089 l -0.079,4.272 -4.58367,0.039 c -3.7396,0.032 -4.6146,0 -4.7514,-0.1632 z m 16.58952,-17.0379 c 1.2936,-0.168 1.8711,-0.446 2.1842,-1.0514 0.3011,-0.5824 0.48,-3.0235 0.3462,-4.7243 -0.1236,-1.5706 -0.4459,-2.2628 -1.2503,-2.6847 -0.5347,-0.2805 -0.8763,-0.3078 -4.3954,-0.3502 -3.0283,-0.037 -3.841,-0.01 -3.9383,0.1473 -0.1823,0.2874 -0.1588,8.1821 0.026,8.5261 0.143,0.2672 0.3336,0.2846 3.0567,0.2804 1.5973,-0.01 3.3845,-0.067 3.9715,-0.1432 z m 58.68464,17.0358 c -0.1215,-0.1463 -0.156,-4.7594 -0.1286,-17.1985 l 0.038,-16.9986 7.395,-0.038 7.395,-0.038 0.2783,0.9221 c 4.0806,13.52 6.0098,19.7 6.1367,19.658 0.085,-0.028 1.4843,-4.6531 3.1088,-10.2775 l 2.9537,-10.2262 7.579,0 7.579,0 0,17.1617 0,17.1617 -4.6809,0.039 c -3.9862,0.033 -4.6932,0.01 -4.7632,-0.1755 -0.045,-0.1179 0.089,-5.074 0.2991,-11.0135 0.405,-11.4679 0.446,-13.4899 0.2696,-13.3194 -0.061,0.059 -1.9335,5.5884 -4.1616,12.2881 l -4.051,12.1814 -3.9594,0.039 c -2.6964,0.026 -4.021,-0.012 -4.1528,-0.1213 -0.1065,-0.088 -1.9926,-5.5577 -4.1914,-12.1542 -2.1988,-6.5964 -4.0588,-12.0312 -4.1334,-12.0773 -0.1936,-0.1197 -0.1835,0.3991 0.2489,12.7789 0.2142,6.1332 0.3501,11.2541 0.3018,11.3798 -0.077,0.1997 -0.6625,0.2285 -4.6409,0.2285 -3.6552,0 -4.5859,-0.039 -4.7192,-0.1999 z m 48.3749,0.054 c -0.078,-0.1264 9.7097,-33.1027 10.0896,-33.9933 l 0.1414,-0.3314 6.9824,0 c 5.4102,0 7.0151,0.042 7.1276,0.1841 0.248,0.3143 10.3783,33.8529 10.2927,34.076 -0.068,0.1764 -0.8281,0.2102 -4.6889,0.2083 -2.5345,0 -4.6937,-0.056 -4.7983,-0.1229 -0.1047,-0.066 -0.5582,-1.3413 -1.0079,-2.8332 -0.4497,-1.4918 -0.8945,-2.7613 -0.9883,-2.821 -0.2225,-0.1416 -11.3151,-0.1419 -11.532,-3e-4 -0.091,0.06 -0.512,1.3015 -0.935,2.7598 -0.4231,1.4584 -0.8371,2.7345 -0.9202,2.8358 -0.1914,0.2332 -9.6197,0.2701 -9.7631,0.038 z m 20.9053,-12.9068 c 0.1282,-0.049 0.233,-0.1829 0.233,-0.2973 0,-0.5415 -3.5967,-12.7281 -3.7423,-12.6801 -0.1643,0.054 -3.5942,11.9929 -3.6129,12.5758 -0.01,0.1755 0.073,0.3526 0.1738,0.3935 0.2657,0.1072 6.6708,0.1147 6.9484,0.01 z m 19.7763,12.9546 c -0.054,-0.054 -0.098,-7.81 -0.098,-17.2354 l 0,-17.1371 9.833,0 c 5.7079,0 10.3891,0.064 11.1587,0.1514 3.998,0.4529 6.3222,1.7834 7.5194,4.3042 0.8682,1.8283 1.011,2.7964 1.0155,6.8861 0.01,4.7659 -0.2649,5.9007 -1.794,7.5355 -0.6273,0.6706 -2.3536,1.693 -3.2577,1.9295 -0.4918,0.1286 -0.2866,0.3402 0.5286,0.5452 2.1371,0.5373 3.7283,2.2615 4.1575,4.5048 0.1073,0.5609 0.1522,2.2652 0.1241,4.709 l -0.044,3.8301 -4.7139,0 -4.7139,0 -0.079,-3.2408 c -0.064,-2.6552 -0.1255,-3.347 -0.3384,-3.8281 -0.344,-0.7773 -0.7814,-1.2342 -1.498,-1.565 -0.5248,-0.2422 -1.0119,-0.2723 -4.4561,-0.2751 l -3.8669,-0.01 0,4.3162 c 0,3.1606 -0.047,4.3635 -0.1768,4.493 -0.1298,0.1298 -1.376,0.1767 -4.6894,0.1767 -2.482,0 -4.5568,-0.044 -4.6108,-0.098 z m 18.342,-17.6844 c 1.1246,-0.5072 1.2257,-0.8266 1.2257,-3.8721 0,-2.9357 -0.1527,-3.4954 -1.1048,-4.047 -0.485,-0.281 -0.7641,-0.2987 -4.7139,-0.2987 l -4.1984,0 -0.039,4.1882 c -0.03,3.2487 0.01,4.217 0.1474,4.3162 0.1025,0.07 1.9431,0.1047 4.0902,0.076 3.5919,-0.048 3.9588,-0.077 4.593,-0.3628 z"
       id="path4005"
       inkscape:connector-curvature="0" />
    <image
       y="-610.41168"
       x="4970.0635"
       id="image3972"
       xlink:href="file:///home/lacon/desenhos/Web%20Expomar/brutos/LOGO%20EXPO%202%20colores.jpg"
       height="615"
       width="2201"
       transform="matrix(0,1,-1,0,0,0)" />
    <image
       y="4990.1299"
       x="716.41168"
       id="image3119"
       xlink:href="file:///home/lacon/desenhos/Web%20Expomar/logo-expomar-debuxo.png"
       height="100"
       width="123.13054" />
    <rect
       y="5139.2505"
       x="1387.5775"
       height="77.668678"
       width="77.668678"
       id="rect4025"
       style="fill:#f4d640;fill-opacity:1;fill-rule:nonzero;stroke:none" />
    <rect
       style="fill:#002e62;fill-opacity:1;fill-rule:nonzero;stroke:none"
       id="rect4027"
       width="77.668678"
       height="77.668678"
       x="1186.4117"
       y="5139.2505" />
    <rect
       y="5139.2505"
       x="1286.9946"
       height="77.668678"
       width="77.668678"
       id="rect4029"
       style="fill:#57c6c0;fill-opacity:1;fill-rule:nonzero;stroke:none" />
    <rect
       style="fill:#f4d640;fill-opacity:1;fill-rule:nonzero;stroke:none"
       id="rect4031"
       width="77.668678"
       height="77.668678"
       x="1488.1603"
       y="5139.2505" />
    <rect
       y="5139.2505"
       x="1588.743"
       height="77.668678"
       width="77.668678"
       id="rect4033"
       style="fill:#f4d640;fill-opacity:1;fill-rule:nonzero;stroke:none" />
    <text
       xml:space="preserve"
       style="font-size:27.4554081px;font-style:normal;font-variant:normal;font-weight:normal;font-stretch:normal;line-height:125%;letter-spacing:0px;word-spacing:0px;fill:#000000;fill-opacity:1;stroke:none;font-family:SKULLX;-inkscape-font-specification:SKULLX"
       x="1329.165"
       y="5122.8618"
       id="text4035"
       sodipodi:linespacing="125%"><tspan
         sodipodi:role="line"
         id="tspan4037"
         x="1329.165"
         y="5122.8618">Posibles cores</tspan></text>
  </g>
</svg>
